<?xml version="1.0" encoding="utf-8" ?>
<svg baseProfile="full" height="100%" version="1.1" viewBox="0,0,1800,1200" width="100%" xmlns="http://www.w3.org/2000/svg" xmlns:ev="http://www.w3.org/2001/xml-events" xmlns:xlink="http://www.w3.org/1999/xlink"><defs /><rect fill="rgb(100%,100%,100%)" height="1200" width="1800" x="0" y="0" /><path d="M 487.116430903 1080.0 L 487.116430903 1100.0 z" fill="none" stroke="rgb(0%,0%,0%)" stroke-linecap="round" stroke-width="3" /><text fill="black" font-family="Nimbus Sans L" font-size="17.0pt" text-anchor="middle" x="487.116430903" y="1122.0">6268.8 kb</text><path d="M 800.50054407 1080.0 L 800.50054407 1100.0 z" fill="none" stroke="rgb(0%,0%,0%)" stroke-linecap="round" stroke-width="3" /><text fill="black" font-family="Nimbus Sans L" font-size="17.0pt" text-anchor="middle" x="800.50054407" y="1122.0">6269.0 kb</text><path d="M 1113.88465724 1080.0 L 1113.88465724 1100.0 z" fill="none" stroke="rgb(0%,0%,0%)" stroke-linecap="round" stroke-width="3" /><text fill="black" font-family="Nimbus Sans L" font-size="17.0pt" text-anchor="middle" x="1113.88465724" y="1122.0">6269.2 kb</text><path d="M 1427.2687704 1080.0 L 1427.2687704 1100.0 z" fill="none" stroke="rgb(0%,0%,0%)" stroke-linecap="round" stroke-width="3" /><text fill="black" font-family="Nimbus Sans L" font-size="17.0pt" text-anchor="middle" x="1427.2687704" y="1122.0">6269.4 kb</text><text fill="black" font-family="Nimbus Sans L" font-size="20pt" text-anchor="middle" x="900.0" y="1164.0">Reference Chromosome Position</text><path d="M 180.0 1046.4 L 1620.0 1046.4" fill="none" stroke="rgb(70%,70%,70%)" stroke-linecap="round" stroke-width="5" /><path d="M 180.0 996.0 L 1620.0 996.0" fill="none" stroke="rgb(70%,70%,70%)" stroke-linecap="round" stroke-width="5" /><text baseline-shift="-50%" fill="black" font-family="Nimbus Sans L" font-size="15pt" text-anchor="end" x="160.0" y="996.0">Forward strand</text><text baseline-shift="-50%" fill="black" font-family="Nimbus Sans L" font-size="15pt" text-anchor="end" x="160.0" y="1046.4">Reverse strand</text><path d="M 181.566920566 1063.2 L 180.0 1063.2 L 168.48 1029.6 L 181.566920566 1029.6 z" fill="rgb(0%,0%,0%)" stroke="white" stroke-linecap="round" stroke-width="1" /><text baseline-shift="-50%" fill="white" font-family="Nimbus Sans L" font-size="15pt" font-weight="bold" stroke="black" stroke-width="0.4" text-anchor="middle" transform="rotate(-25,180.783460283,1046.4)" x="180.783460283" y="1046.4">PLES_RS29095</text><path d="M 1306.61588683 1063.2 L 504.904113166 1063.2 L 493.384113166 1046.4 L 504.904113166 1029.6 L 1306.61588683 1029.6 z" fill="rgb(0%,0%,0%)" stroke="white" stroke-linecap="round" stroke-width="1" /><text baseline-shift="-50%" fill="white" font-family="Nimbus Sans L" font-size="15pt" font-weight="bold" stroke="black" stroke-width="0.4" text-anchor="middle" x="900.0" y="1046.4">PLES_RS29100</text><path d="M 180.0 945.6 L 1620.0 945.6" fill="none" stroke="rgb(70%,70%,70%)" stroke-linecap="round" stroke-width="5" /><text baseline-shift="-50%" fill="black" font-family="Nimbus Sans L" font-size="15pt" text-anchor="end" x="160.0" y="945.6">Large Features</text><path d="M 197.236126224 885.0 L 197.236126224 813.72 L 219.173014146 820.2 L 250.511425462 815.34 L 281.849836779 813.72 L 311.62132753 815.34 L 342.959738847 807.24 L 368.0304679 799.14 L 388.400435256 781.32 L 419.738846572 768.36 L 451.077257889 747.3 L 482.415669206 734.34 L 513.754080522 724.62 L 545.092491839 723.0 L 576.430903156 723.0 L 607.769314472 723.0 L 639.107725789 723.0 L 670.446137106 723.0 L 701.784548422 723.0 L 733.122959739 723.0 L 764.461371055 723.0 L 795.799782372 723.0 L 827.138193689 723.0 L 858.476605005 723.0 L 889.815016322 723.0 L 921.153427639 723.0 L 952.491838955 723.0 L 983.830250272 723.0 L 1015.16866159 723.0 L 1046.50707291 723.0 L 1077.84548422 723.0 L 1109.18389554 723.0 L 1140.52230686 723.0 L 1171.86071817 726.24 L 1203.19912949 740.82 L 1234.53754081 753.78 L 1294.08052231 781.32 L 1325.41893362 795.9 L 1356.75734494 800.76 L 1381.82807399 805.62 L 1399.06420022 808.86 L 1430.40261153 799.14 L 1461.74102285 789.42 L 1461.74102285 885.0 z" fill="rgb(80%,80%,80%)" fill-rule="evenodd" stroke="rgb(80%,80%,80%)" stroke-linecap="round" stroke-width="0" /><path d="M 197.236126224 813.72 L 219.173014146 820.2 L 250.511425462 815.34 L 281.849836779 813.72 L 311.62132753 815.34 L 342.959738847 807.24 L 368.0304679 799.14 L 388.400435256 781.32 L 419.738846572 768.36 L 451.077257889 747.3 L 482.415669206 734.34 L 513.754080522 724.62 L 545.092491839 723.0 L 576.430903156 723.0 L 607.769314472 723.0 L 639.107725789 723.0 L 670.446137106 723.0 L 701.784548422 723.0 L 733.122959739 723.0 L 764.461371055 723.0 L 795.799782372 723.0 L 827.138193689 723.0 L 858.476605005 723.0 L 889.815016322 723.0 L 921.153427639 723.0 L 952.491838955 723.0 L 983.830250272 723.0 L 1015.16866159 723.0 L 1046.50707291 723.0 L 1077.84548422 723.0 L 1109.18389554 723.0 L 1140.52230686 723.0 L 1171.86071817 726.24 L 1203.19912949 740.82 L 1234.53754081 753.78 L 1294.08052231 781.32 L 1325.41893362 795.9 L 1356.75734494 800.76 L 1381.82807399 805.62 L 1399.06420022 808.86 L 1430.40261153 799.14 L 1461.74102285 789.42" fill="none" stroke="rgb(50%,50%,50%)" stroke-linecap="round" stroke-width="2" /><path d="M 175.0 720.0 L 175.0 888.0" fill="none" fill-rule="evenodd" stroke="black" stroke-linecap="round" stroke-width="3" /><path d="M 175.0 888.0 L 155.0 888.0" fill="none" fill-rule="evenodd" stroke="black" stroke-linecap="round" stroke-width="3" /><text baseline-shift="-50%" fill="black" font-family="Nimbus Sans L" font-size="17.0pt" text-anchor="end" x="150.0" y="888.0">0 %</text><path d="M 175.0 854.4 L 155.0 854.4" fill="none" fill-rule="evenodd" stroke="black" stroke-linecap="round" stroke-width="3" /><text baseline-shift="-50%" fill="black" font-family="Nimbus Sans L" font-size="17.0pt" text-anchor="end" x="150.0" y="854.4">20 %</text><path d="M 175.0 820.8 L 155.0 820.8" fill="none" fill-rule="evenodd" stroke="black" stroke-linecap="round" stroke-width="3" /><text baseline-shift="-50%" fill="black" font-family="Nimbus Sans L" font-size="17.0pt" text-anchor="end" x="150.0" y="820.8">40 %</text><path d="M 175.0 787.2 L 155.0 787.2" fill="none" fill-rule="evenodd" stroke="black" stroke-linecap="round" stroke-width="3" /><text baseline-shift="-50%" fill="black" font-family="Nimbus Sans L" font-size="17.0pt" text-anchor="end" x="150.0" y="787.2">60 %</text><path d="M 175.0 753.6 L 155.0 753.6" fill="none" fill-rule="evenodd" stroke="black" stroke-linecap="round" stroke-width="3" /><text baseline-shift="-50%" fill="black" font-family="Nimbus Sans L" font-size="17.0pt" text-anchor="end" x="150.0" y="753.6">80 %</text><path d="M 175.0 720.0 L 155.0 720.0" fill="none" fill-rule="evenodd" stroke="black" stroke-linecap="round" stroke-width="3" /><text baseline-shift="-50%" fill="black" font-family="Nimbus Sans L" font-size="17.0pt" text-anchor="end" x="150.0" y="720.0">100 %</text><text fill="black" font-family="Nimbus Sans L" font-size="20pt" text-anchor="middle" transform="rotate(270 45.0,801.0)" x="45.0" y="801.0">Nucleotide Identity</text><text baseline-shift="-50%" fill="black" font-family="Nimbus Sans L" font-size="28.0pt" text-anchor="middle" x="22.5" y="649.8">B</text><path d="M 487.116430903 885.0 L 487.116430903 723.0 L 1176.56147987 723.0 L 1176.56147987 885.0 z" fill="rgb(2%,25%,100%)" fill-opacity="0.45" fill-rule="evenodd" stroke="none" stroke-linecap="round" stroke-width="3" /><path d="M 487.116430903 885.0 L 487.116430903 723.0 L 1176.56147987 723.0 L 1176.56147987 885.0 z" fill="rgb(100%,2%,36%)" fill-opacity="0.36" fill-rule="evenodd" stroke="none" stroke-linecap="round" stroke-width="3" /><path d="M 192.535364527 600.0 L 192.535364527 620.0 z" fill="none" stroke="rgb(0%,0%,0%)" stroke-linecap="round" stroke-width="3" /><text fill="black" font-family="Nimbus Sans L" font-size="17.0pt" text-anchor="middle" x="192.535364527" y="642.0">289.8 kb</text><path d="M 505.919477693 600.0 L 505.919477693 620.0 z" fill="none" stroke="rgb(0%,0%,0%)" stroke-linecap="round" stroke-width="3" /><text fill="black" font-family="Nimbus Sans L" font-size="17.0pt" text-anchor="middle" x="505.919477693" y="642.0">290.0 kb</text><path d="M 819.30359086 600.0 L 819.30359086 620.0 z" fill="none" stroke="rgb(0%,0%,0%)" stroke-linecap="round" stroke-width="3" /><text fill="black" font-family="Nimbus Sans L" font-size="17.0pt" text-anchor="middle" x="819.30359086" y="642.0">290.2 kb</text><path d="M 1132.68770403 600.0 L 1132.68770403 620.0 z" fill="none" stroke="rgb(0%,0%,0%)" stroke-linecap="round" stroke-width="3" /><text fill="black" font-family="Nimbus Sans L" font-size="17.0pt" text-anchor="middle" x="1132.68770403" y="642.0">290.4 kb</text><path d="M 1446.07181719 600.0 L 1446.07181719 620.0 z" fill="none" stroke="rgb(0%,0%,0%)" stroke-linecap="round" stroke-width="3" /><text fill="black" font-family="Nimbus Sans L" font-size="17.0pt" text-anchor="middle" x="1446.07181719" y="642.0">290.6 kb</text><path d="M 180.0 566.4 L 1620.0 566.4" fill="none" stroke="rgb(70%,70%,70%)" stroke-linecap="round" stroke-width="5" /><path d="M 180.0 516.0 L 1620.0 516.0" fill="none" stroke="rgb(70%,70%,70%)" stroke-linecap="round" stroke-width="5" /><text baseline-shift="-50%" fill="black" font-family="Nimbus Sans L" font-size="15pt" text-anchor="end" x="160.0" y="516.0">Forward strand</text><text baseline-shift="-50%" fill="black" font-family="Nimbus Sans L" font-size="15pt" text-anchor="end" x="160.0" y="566.4">Reverse strand</text><path d="M 209.771490751 583.2 L 180.0 583.2 L 168.48 549.6 L 209.771490751 549.6 z" fill="rgb(0%,0%,0%)" stroke="white" stroke-linecap="round" stroke-width="1" /><text baseline-shift="-50%" fill="white" font-family="Nimbus Sans L" font-size="15pt" font-weight="bold" stroke="black" stroke-width="0.4" text-anchor="middle" transform="rotate(-25,194.885745375,566.4)" x="194.885745375" y="566.4">PLES_RS01320</text><path d="M 1306.61588683 583.2 L 504.904113166 583.2 L 493.384113166 566.4 L 504.904113166 549.6 L 1306.61588683 549.6 z" fill="rgb(0%,0%,0%)" stroke="white" stroke-linecap="round" stroke-width="1" /><text baseline-shift="-50%" fill="white" font-family="Nimbus Sans L" font-size="15pt" font-weight="bold" stroke="black" stroke-width="0.4" text-anchor="middle" x="900.0" y="566.4">PLES_RS01325</text><path d="M 180.0 465.6 L 1620.0 465.6" fill="none" stroke="rgb(70%,70%,70%)" stroke-linecap="round" stroke-width="5" /><text baseline-shift="-50%" fill="black" font-family="Nimbus Sans L" font-size="15pt" text-anchor="end" x="160.0" y="465.6">Large Features</text><path d="M 178.433079434 405.0 L 178.433079434 322.38 L 206.637649619 333.72 L 237.976060936 340.2 L 274.01523395 333.72 L 305.353645267 335.34 L 330.42437432 327.24 L 361.762785637 319.14 L 419.738846572 288.36 L 451.077257889 267.3 L 482.415669206 254.34 L 513.754080522 244.62 L 545.092491839 243.0 L 576.430903156 243.0 L 607.769314472 243.0 L 639.107725789 243.0 L 670.446137106 243.0 L 701.784548422 243.0 L 733.122959739 243.0 L 764.461371055 243.0 L 795.799782372 243.0 L 827.138193689 243.0 L 858.476605005 243.0 L 889.815016322 243.0 L 921.153427639 243.0 L 952.491838955 243.0 L 983.830250272 243.0 L 1015.16866159 243.0 L 1046.50707291 243.0 L 1077.84548422 243.0 L 1109.18389554 243.0 L 1140.52230686 243.0 L 1171.86071817 246.24 L 1203.19912949 260.82 L 1234.53754081 273.78 L 1265.87595212 285.12 L 1295.64744287 301.32 L 1325.41893362 315.9 L 1356.75734494 320.76 L 1388.09575626 325.62 L 1419.43416757 328.86 L 1464.87486398 309.42 L 1464.87486398 405.0 z" fill="rgb(80%,80%,80%)" fill-rule="evenodd" stroke="rgb(80%,80%,80%)" stroke-linecap="round" stroke-width="0" /><path d="M 178.433079434 322.38 L 206.637649619 333.72 L 237.976060936 340.2 L 274.01523395 333.72 L 305.353645267 335.34 L 330.42437432 327.24 L 361.762785637 319.14 L 419.738846572 288.36 L 451.077257889 267.3 L 482.415669206 254.34 L 513.754080522 244.62 L 545.092491839 243.0 L 576.430903156 243.0 L 607.769314472 243.0 L 639.107725789 243.0 L 670.446137106 243.0 L 701.784548422 243.0 L 733.122959739 243.0 L 764.461371055 243.0 L 795.799782372 243.0 L 827.138193689 243.0 L 858.476605005 243.0 L 889.815016322 243.0 L 921.153427639 243.0 L 952.491838955 243.0 L 983.830250272 243.0 L 1015.16866159 243.0 L 1046.50707291 243.0 L 1077.84548422 243.0 L 1109.18389554 243.0 L 1140.52230686 243.0 L 1171.86071817 246.24 L 1203.19912949 260.82 L 1234.53754081 273.78 L 1265.87595212 285.12 L 1295.64744287 301.32 L 1325.41893362 315.9 L 1356.75734494 320.76 L 1388.09575626 325.62 L 1419.43416757 328.86 L 1464.87486398 309.42" fill="none" stroke="rgb(50%,50%,50%)" stroke-linecap="round" stroke-width="2" /><path d="M 175.0 240.0 L 175.0 408.0" fill="none" fill-rule="evenodd" stroke="black" stroke-linecap="round" stroke-width="3" /><path d="M 175.0 408.0 L 155.0 408.0" fill="none" fill-rule="evenodd" stroke="black" stroke-linecap="round" stroke-width="3" /><text baseline-shift="-50%" fill="black" font-family="Nimbus Sans L" font-size="17.0pt" text-anchor="end" x="150.0" y="408.0">0 %</text><path d="M 175.0 374.4 L 155.0 374.4" fill="none" fill-rule="evenodd" stroke="black" stroke-linecap="round" stroke-width="3" /><text baseline-shift="-50%" fill="black" font-family="Nimbus Sans L" font-size="17.0pt" text-anchor="end" x="150.0" y="374.4">20 %</text><path d="M 175.0 340.8 L 155.0 340.8" fill="none" fill-rule="evenodd" stroke="black" stroke-linecap="round" stroke-width="3" /><text baseline-shift="-50%" fill="black" font-family="Nimbus Sans L" font-size="17.0pt" text-anchor="end" x="150.0" y="340.8">40 %</text><path d="M 175.0 307.2 L 155.0 307.2" fill="none" fill-rule="evenodd" stroke="black" stroke-linecap="round" stroke-width="3" /><text baseline-shift="-50%" fill="black" font-family="Nimbus Sans L" font-size="17.0pt" text-anchor="end" x="150.0" y="307.2">60 %</text><path d="M 175.0 273.6 L 155.0 273.6" fill="none" fill-rule="evenodd" stroke="black" stroke-linecap="round" stroke-width="3" /><text baseline-shift="-50%" fill="black" font-family="Nimbus Sans L" font-size="17.0pt" text-anchor="end" x="150.0" y="273.6">80 %</text><path d="M 175.0 240.0 L 155.0 240.0" fill="none" fill-rule="evenodd" stroke="black" stroke-linecap="round" stroke-width="3" /><text baseline-shift="-50%" fill="black" font-family="Nimbus Sans L" font-size="17.0pt" text-anchor="end" x="150.0" y="240.0">100 %</text><text fill="black" font-family="Nimbus Sans L" font-size="20pt" text-anchor="middle" transform="rotate(270 45.0,321.0)" x="45.0" y="321.0">Nucleotide Identity</text><text baseline-shift="-50%" fill="black" font-family="Nimbus Sans L" font-size="28.0pt" text-anchor="middle" x="22.5" y="169.8">A</text><path d="M 180.0 405.0 L 180.0 243.0 L 1446.07181719 243.0 L 1446.07181719 405.0 z" fill="rgb(2%,25%,100%)" fill-opacity="0.45" fill-rule="evenodd" stroke="none" stroke-linecap="round" stroke-width="3" /><path d="M 505.919477693 405.0 L 505.919477693 243.0 L 1195.36452666 243.0 L 1195.36452666 405.0 z" fill="rgb(100%,2%,36%)" fill-opacity="0.36" fill-rule="evenodd" stroke="none" stroke-linecap="round" stroke-width="3" /></svg>