<?xml version="1.0" encoding="utf-8" ?>
<svg baseProfile="full" height="100%" version="1.1" viewBox="0,0,1800,1200" width="100%" xmlns="http://www.w3.org/2000/svg" xmlns:ev="http://www.w3.org/2001/xml-events" xmlns:xlink="http://www.w3.org/1999/xlink"><defs /><rect fill="rgb(100%,100%,100%)" height="1200" width="1800" x="0" y="0" /><path d="M 419.785426911 1080.0 L 419.785426911 1100.0 z" fill="none" stroke="rgb(0%,0%,0%)" stroke-linecap="round" stroke-width="3" /><text fill="black" font-family="Nimbus Sans L" font-size="17.0pt" text-anchor="middle" x="419.785426911" y="1122.0">1462 kb</text><path d="M 741.645060349 1080.0 L 741.645060349 1100.0 z" fill="none" stroke="rgb(0%,0%,0%)" stroke-linecap="round" stroke-width="3" /><text fill="black" font-family="Nimbus Sans L" font-size="17.0pt" text-anchor="middle" x="741.645060349" y="1122.0">1464 kb</text><path d="M 1063.50469379 1080.0 L 1063.50469379 1100.0 z" fill="none" stroke="rgb(0%,0%,0%)" stroke-linecap="round" stroke-width="3" /><text fill="black" font-family="Nimbus Sans L" font-size="17.0pt" text-anchor="middle" x="1063.50469379" y="1122.0">1466 kb</text><path d="M 1385.36432722 1080.0 L 1385.36432722 1100.0 z" fill="none" stroke="rgb(0%,0%,0%)" stroke-linecap="round" stroke-width="3" /><text fill="black" font-family="Nimbus Sans L" font-size="17.0pt" text-anchor="middle" x="1385.36432722" y="1122.0">1468 kb</text><text fill="black" font-family="Nimbus Sans L" font-size="20pt" text-anchor="middle" x="900.0" y="1164.0">Reference Chromosome Position</text><path d="M 180.0 1046.4 L 1620.0 1046.4" fill="none" stroke="rgb(70%,70%,70%)" stroke-linecap="round" stroke-width="5" /><path d="M 180.0 996.0 L 1620.0 996.0" fill="none" stroke="rgb(70%,70%,70%)" stroke-linecap="round" stroke-width="5" /><text baseline-shift="-50%" fill="black" font-family="Nimbus Sans L" font-size="15pt" text-anchor="end" x="160.0" y="996.0">Forward strand</text><text baseline-shift="-50%" fill="black" font-family="Nimbus Sans L" font-size="15pt" text-anchor="end" x="160.0" y="1046.4">Reverse strand</text><path d="M 1532.4541797 1012.8 L 1620.0 1012.8 L 1631.52 979.2 L 1532.4541797 979.2 z" fill="rgb(0%,0%,0%)" stroke="white" stroke-linecap="round" stroke-width="1" /><text baseline-shift="-50%" fill="white" font-family="Nimbus Sans L" font-size="15pt" font-weight="bold" stroke="black" stroke-width="0.4" text-anchor="middle" transform="rotate(-25,1576.22708985,996.0)" x="1576.22708985" y="996.0">PLES_RS07060</text><path d="M 1466.47295485 1012.8 L 1521.09510952 1012.8 L 1532.61510952 996.0 L 1521.09510952 979.2 L 1466.47295485 979.2 z" fill="rgb(0%,0%,0%)" stroke="white" stroke-linecap="round" stroke-width="1" /><text baseline-shift="-50%" fill="white" font-family="Nimbus Sans L" font-size="15pt" font-weight="bold" stroke="black" stroke-width="0.4" text-anchor="middle" transform="rotate(-25,1499.54403219,996.0)" x="1499.54403219" y="996.0">PLES_RS07055</text><path d="M 1192.89226643 1012.8 L 1454.63109522 1012.8 L 1466.15109522 996.0 L 1454.63109522 979.2 L 1192.89226643 979.2 z" fill="rgb(0%,0%,0%)" stroke="white" stroke-linecap="round" stroke-width="1" /><text baseline-shift="-50%" fill="white" font-family="Nimbus Sans L" font-size="15pt" font-weight="bold" stroke="black" stroke-width="0.4" text-anchor="middle" x="1329.52168082" y="996.0">PLES_RS07050</text><path d="M 1109.04783192 1012.8 L 1181.53319624 1012.8 L 1193.05319624 996.0 L 1181.53319624 979.2 L 1109.04783192 979.2 z" fill="rgb(0%,0%,0%)" stroke="white" stroke-linecap="round" stroke-width="1" /><text baseline-shift="-50%" fill="white" font-family="Nimbus Sans L" font-size="15pt" font-weight="bold" stroke="black" stroke-width="0.4" text-anchor="middle" transform="rotate(-25,1151.05051408,996.0)" x="1151.05051408" y="996.0">PLES_RS07045</text><path d="M 703.021904336 1012.8 L 1091.25156907 1012.8 L 1102.77156907 996.0 L 1091.25156907 979.2 L 703.021904336 979.2 z" fill="rgb(0%,0%,0%)" stroke="white" stroke-linecap="round" stroke-width="1" /><text baseline-shift="-50%" fill="white" font-family="Nimbus Sans L" font-size="15pt" font-weight="bold" stroke="black" stroke-width="0.4" text-anchor="middle" x="902.896736701" y="996.0">PLES_RS07040</text><path d="M 637.845328565 1012.8 L 675.087063031 1012.8 L 686.607063031 996.0 L 675.087063031 979.2 L 637.845328565 979.2 z" fill="rgb(0%,0%,0%)" stroke="white" stroke-linecap="round" stroke-width="1" /><text baseline-shift="-50%" fill="white" font-family="Nimbus Sans L" font-size="15pt" font-weight="bold" stroke="black" stroke-width="0.4" text-anchor="middle" transform="rotate(-25,662.226195798,996.0)" x="662.226195798" y="996.0">PLES_RS07035</text><path d="M 390.818059902 1012.8 L 500.478211891 1012.8 L 511.998211891 996.0 L 500.478211891 979.2 L 390.818059902 979.2 z" fill="rgb(0%,0%,0%)" stroke="white" stroke-linecap="round" stroke-width="1" /><text baseline-shift="-50%" fill="white" font-family="Nimbus Sans L" font-size="15pt" font-weight="bold" stroke="black" stroke-width="0.4" text-anchor="middle" x="451.408135896" y="996.0">PLES_RS07030</text><path d="M 359.275815825 1012.8 L 379.137130085 1012.8 L 390.657130085 996.0 L 379.137130085 979.2 L 359.275815825 979.2 z" fill="rgb(0%,0%,0%)" stroke="white" stroke-linecap="round" stroke-width="1" /><text baseline-shift="-50%" fill="white" font-family="Nimbus Sans L" font-size="15pt" font-weight="bold" stroke="black" stroke-width="0.4" text-anchor="middle" transform="rotate(-25,374.966472955,996.0)" x="374.966472955" y="996.0">PLES_RS07025</text><path d="M 282.9950827 1012.8 L 347.273026375 1012.8 L 358.793026375 996.0 L 347.273026375 979.2 L 282.9950827 979.2 z" fill="rgb(0%,0%,0%)" stroke="white" stroke-linecap="round" stroke-width="1" /><text baseline-shift="-50%" fill="white" font-family="Nimbus Sans L" font-size="15pt" font-weight="bold" stroke="black" stroke-width="0.4" text-anchor="middle" transform="rotate(-25,320.894054537,996.0)" x="320.894054537" y="996.0">PLES_RS07020</text><path d="M 230.53196245 1012.8 L 272.118801967 1012.8 L 283.638801967 996.0 L 272.118801967 979.2 L 230.53196245 979.2 z" fill="rgb(0%,0%,0%)" stroke="white" stroke-linecap="round" stroke-width="1" /><text baseline-shift="-50%" fill="white" font-family="Nimbus Sans L" font-size="15pt" font-weight="bold" stroke="black" stroke-width="0.4" text-anchor="middle" transform="rotate(-25,257.085382208,996.0)" x="257.085382208" y="996.0">PLES_RS07015</text><path d="M 180.0 1012.8 L 219.655681717 1012.8 L 231.175681717 996.0 L 219.655681717 979.2 L 180.0 979.2 z" fill="rgb(0%,0%,0%)" stroke="white" stroke-linecap="round" stroke-width="1" /><text baseline-shift="-50%" fill="white" font-family="Nimbus Sans L" font-size="15pt" font-weight="bold" stroke="black" stroke-width="0.4" text-anchor="middle" transform="rotate(-25,205.587840858,996.0)" x="205.587840858" y="996.0">PLES_RS07010</text><path d="M 180.0 945.6 L 1620.0 945.6" fill="none" stroke="rgb(70%,70%,70%)" stroke-linecap="round" stroke-width="5" /><text baseline-shift="-50%" fill="black" font-family="Nimbus Sans L" font-size="15pt" text-anchor="end" x="160.0" y="945.6">Large Features</text><path d="M 168.48 962.4 L 1620.0 962.4 L 1631.52 928.8 L 180.0 928.8 z" fill="rgb(20%,20%,20%)" stroke="white" stroke-linecap="round" stroke-width="1" /><text baseline-shift="-50%" fill="white" font-family="Nimbus Sans L" font-size="15pt" font-weight="bold" stroke="black" stroke-width="0.2" text-anchor="middle" x="900.0" y="945.6">LES prophage 3</text><path d="M 196.092981672 885.0 L 196.092981672 740.82 L 199.311578006 748.92 L 202.530174341 753.78 L 205.748770675 753.78 L 208.967367009 755.4 L 212.185963344 748.92 L 215.404559678 740.82 L 218.623156013 737.58 L 221.841752347 732.72 L 225.060348681 726.24 L 228.278945016 727.86 L 231.49754135 732.72 L 234.716137684 761.88 L 237.934734019 794.28 L 240.187751453 885.0 L 243.406347787 885.0 L 246.624944122 885.0 L 249.843540456 885.0 L 253.06213679 885.0 L 256.280733125 885.0 L 259.499329459 885.0 L 262.717925793 885.0 L 265.936522128 885.0 L 269.155118462 885.0 L 272.373714797 885.0 L 275.592311131 885.0 L 278.810907465 885.0 L 282.0295038 885.0 L 285.248100134 885.0 L 288.466696468 885.0 L 294.099240054 883.38 L 297.317836388 883.38 L 300.536432722 885.0 L 303.755029057 885.0 L 306.973625391 885.0 L 310.192221726 885.0 L 313.41081806 885.0 L 316.629414394 885.0 L 319.848010729 885.0 L 323.066607063 885.0 L 326.285203397 885.0 L 329.503799732 885.0 L 332.722396066 885.0 L 335.940992401 885.0 L 339.159588735 885.0 L 342.378185069 885.0 L 345.596781404 885.0 L 348.815377738 885.0 L 352.033974072 885.0 L 355.252570407 885.0 L 358.471166741 885.0 L 361.689763076 855.84 L 364.90835941 823.44 L 368.126955744 791.04 L 371.345552079 758.64 L 374.564148413 726.24 L 377.782744747 723.0 L 381.001341082 723.0 L 384.219937416 723.0 L 387.438533751 723.0 L 390.657130085 723.0 L 393.875726419 723.0 L 397.094322754 731.1 L 400.312919088 742.44 L 403.531515422 757.02 L 406.750111757 769.98 L 409.968708091 773.22 L 413.187304426 774.84 L 416.40590076 766.74 L 419.624497094 760.26 L 422.843093429 753.78 L 426.061689763 753.78 L 429.280286097 755.4 L 432.498882432 758.64 L 435.717478766 750.54 L 438.936075101 745.68 L 442.154671435 744.06 L 445.373267769 732.72 L 448.591864104 726.24 L 451.810460438 727.86 L 455.029056772 726.24 L 458.247653107 726.24 L 461.466249441 731.1 L 464.684845776 734.34 L 467.90344211 735.96 L 471.122038444 739.2 L 474.340634779 737.58 L 477.559231113 734.34 L 480.777827447 732.72 L 483.996423782 732.72 L 487.215020116 732.72 L 490.433616451 735.96 L 493.652212785 740.82 L 496.870809119 742.44 L 500.089405454 739.2 L 503.308001788 735.96 L 506.526598122 734.34 L 509.745194457 727.86 L 512.963790791 724.62 L 516.182387126 724.62 L 519.40098346 724.62 L 522.619579794 723.0 L 525.838176129 723.0 L 529.056772463 723.0 L 532.275368797 723.0 L 535.493965132 723.0 L 538.712561466 723.0 L 541.931157801 723.0 L 545.149754135 723.0 L 548.368350469 723.0 L 551.586946804 723.0 L 554.805543138 724.62 L 558.024139473 724.62 L 561.242735807 724.62 L 564.461332141 724.62 L 567.679928476 724.62 L 570.89852481 723.0 L 574.117121144 723.0 L 577.335717479 723.0 L 580.554313813 723.0 L 583.772910148 723.0 L 586.991506482 723.0 L 590.210102816 723.0 L 593.428699151 723.0 L 596.647295485 723.0 L 599.865891819 724.62 L 603.084488154 724.62 L 606.303084488 724.62 L 609.521680823 724.62 L 612.740277157 724.62 L 615.958873491 723.0 L 619.177469826 723.0 L 622.39606616 723.0 L 625.614662494 723.0 L 628.833258829 723.0 L 632.051855163 723.0 L 635.270451498 723.0 L 638.489047832 723.0 L 641.707644166 723.0 L 644.926240501 723.0 L 648.144836835 723.0 L 651.363433169 723.0 L 654.582029504 723.0 L 657.800625838 723.0 L 661.019222173 723.0 L 664.237818507 723.0 L 667.456414841 723.0 L 670.675011176 723.0 L 673.89360751 723.0 L 677.112203844 723.0 L 680.330800179 723.0 L 683.549396513 723.0 L 686.767992848 723.0 L 689.986589182 723.0 L 693.205185516 723.0 L 696.423781851 723.0 L 699.642378185 723.0 L 702.860974519 723.0 L 706.079570854 723.0 L 709.298167188 723.0 L 712.516763523 723.0 L 715.735359857 723.0 L 718.953956191 723.0 L 722.172552526 723.0 L 725.39114886 723.0 L 728.609745194 724.62 L 731.828341529 724.62 L 735.046937863 724.62 L 738.265534198 724.62 L 741.484130532 724.62 L 744.702726866 723.0 L 747.921323201 723.0 L 751.139919535 723.0 L 754.358515869 723.0 L 757.577112204 723.0 L 760.795708538 723.0 L 764.014304873 723.0 L 767.232901207 723.0 L 770.451497541 723.0 L 773.670093876 723.0 L 776.88869021 723.0 L 780.107286544 723.0 L 783.325882879 723.0 L 786.544479213 723.0 L 789.763075548 723.0 L 792.981671882 723.0 L 796.200268216 723.0 L 799.418864551 723.0 L 802.637460885 723.0 L 805.856057219 723.0 L 809.074653554 723.0 L 812.293249888 723.0 L 815.511846223 724.62 L 818.730442557 724.62 L 821.949038891 724.62 L 825.167635226 724.62 L 828.38623156 726.24 L 831.604827895 724.62 L 834.823424229 724.62 L 838.042020563 727.86 L 841.260616898 727.86 L 844.479213232 726.24 L 847.697809566 727.86 L 850.916405901 732.72 L 854.135002235 729.48 L 857.35359857 729.48 L 860.572194904 731.1 L 863.790791238 732.72 L 867.009387573 729.48 L 870.227983907 732.72 L 873.446580241 735.96 L 876.665176576 734.34 L 879.88377291 735.96 L 883.102369245 735.96 L 886.320965579 732.72 L 889.539561913 732.72 L 892.758158248 732.72 L 895.976754582 731.1 L 899.195350916 729.48 L 902.413947251 732.72 L 905.632543585 731.1 L 908.85113992 732.72 L 912.069736254 732.72 L 915.288332588 735.96 L 918.506928923 732.72 L 921.725525257 739.2 L 924.944121591 742.44 L 928.162717926 740.82 L 931.38131426 742.44 L 934.599910595 744.06 L 937.818506929 740.82 L 941.037103263 737.58 L 944.255699598 739.2 L 947.474295932 734.34 L 950.692892266 734.34 L 953.911488601 729.48 L 957.130084935 727.86 L 960.34868127 726.24 L 963.567277604 726.24 L 966.785873938 727.86 L 970.004470273 727.86 L 973.223066607 732.72 L 976.441662941 731.1 L 979.660259276 731.1 L 982.87885561 727.86 L 986.097451945 731.1 L 989.316048279 727.86 L 992.534644613 727.86 L 995.753240948 731.1 L 998.971837282 731.1 L 1002.19043362 727.86 L 1005.40902995 726.24 L 1008.62762629 726.24 L 1011.84622262 723.0 L 1015.06481895 723.0 L 1018.28341529 723.0 L 1021.50201162 723.0 L 1024.72060796 724.62 L 1027.93920429 724.62 L 1031.15780063 726.24 L 1034.37639696 729.48 L 1037.59499329 729.48 L 1040.81358963 727.86 L 1044.03218596 729.48 L 1047.2507823 727.86 L 1050.46937863 724.62 L 1053.68797497 724.62 L 1056.9065713 726.24 L 1060.12516764 724.62 L 1063.34376397 724.62 L 1066.5623603 724.62 L 1069.78095664 724.62 L 1072.99955297 723.0 L 1076.21814931 724.62 L 1079.43674564 726.24 L 1082.65534198 726.24 L 1085.87393831 727.86 L 1089.09253464 729.48 L 1092.31113098 727.86 L 1095.52972731 726.24 L 1098.74832365 727.86 L 1101.96691998 727.86 L 1105.18551632 729.48 L 1108.40411265 729.48 L 1111.62270899 731.1 L 1114.84130532 731.1 L 1118.05990165 729.48 L 1121.27849799 726.24 L 1124.49709432 727.86 L 1127.71569066 727.86 L 1130.93428699 727.86 L 1134.15288333 731.1 L 1137.37147966 731.1 L 1140.59007599 729.48 L 1143.80867233 727.86 L 1147.02726866 726.24 L 1150.245865 723.0 L 1153.46446133 724.62 L 1156.68305767 724.62 L 1159.901654 724.62 L 1163.12025034 724.62 L 1166.33884667 724.62 L 1169.557443 723.0 L 1172.77603934 723.0 L 1175.99463567 723.0 L 1179.21323201 723.0 L 1182.43182834 724.62 L 1185.65042468 724.62 L 1188.86902101 724.62 L 1192.08761734 724.62 L 1195.30621368 747.3 L 1198.52481001 778.08 L 1202.2261958 885.0 L 1205.44479213 885.0 L 1208.66338847 885.0 L 1211.8819848 885.0 L 1215.10058114 885.0 L 1218.31917747 885.0 L 1221.5377738 885.0 L 1224.75637014 885.0 L 1227.97496647 885.0 L 1231.19356281 885.0 L 1234.41215914 885.0 L 1237.63075548 885.0 L 1240.84935181 885.0 L 1244.06794814 885.0 L 1247.28654448 885.0 L 1250.50514081 885.0 L 1253.72373715 885.0 L 1256.94233348 885.0 L 1260.16092982 885.0 L 1263.37952615 885.0 L 1266.59812249 885.0 L 1269.81671882 885.0 L 1273.03531515 885.0 L 1276.25391149 885.0 L 1279.47250782 885.0 L 1282.69110416 885.0 L 1285.90970049 885.0 L 1289.12829683 885.0 L 1292.34689316 885.0 L 1295.56548949 885.0 L 1298.78408583 885.0 L 1302.00268216 885.0 L 1305.2212785 885.0 L 1308.43987483 885.0 L 1311.65847117 885.0 L 1314.8770675 885.0 L 1318.09566384 885.0 L 1321.31426017 885.0 L 1324.5328565 885.0 L 1327.75145284 885.0 L 1330.97004917 885.0 L 1334.18864551 885.0 L 1337.40724184 885.0 L 1340.62583818 885.0 L 1343.84443451 885.0 L 1347.06303084 885.0 L 1350.28162718 885.0 L 1353.50022351 885.0 L 1356.71881985 885.0 L 1359.93741618 885.0 L 1363.15601252 885.0 L 1366.37460885 885.0 L 1369.59320519 885.0 L 1372.81180152 885.0 L 1376.03039785 885.0 L 1379.24899419 885.0 L 1382.46759052 885.0 L 1385.68618686 885.0 L 1388.90478319 885.0 L 1392.12337953 885.0 L 1395.34197586 885.0 L 1398.56057219 885.0 L 1401.77916853 885.0 L 1404.99776486 885.0 L 1408.2163612 885.0 L 1411.43495753 885.0 L 1414.65355387 885.0 L 1417.8721502 885.0 L 1421.09074654 885.0 L 1424.30934287 885.0 L 1427.5279392 885.0 L 1430.74653554 885.0 L 1433.96513187 885.0 L 1437.18372821 885.0 L 1440.40232454 885.0 L 1443.62092088 885.0 L 1446.83951721 885.0 L 1450.05811354 885.0 L 1453.27670988 885.0 L 1456.49530621 885.0 L 1459.71390255 885.0 L 1462.93249888 885.0 L 1466.15109522 885.0 L 1469.36969155 854.22 L 1472.58828789 821.82 L 1475.80688422 795.9 L 1479.02548055 766.74 L 1482.24407689 735.96 L 1485.46267322 740.82 L 1488.68126956 745.68 L 1491.89986589 745.68 L 1495.11846223 744.06 L 1498.33705856 747.3 L 1501.55565489 740.82 L 1504.77425123 744.06 L 1507.99284756 740.82 L 1511.2114439 747.3 L 1514.43004023 744.06 L 1517.64863657 744.06 L 1520.8672329 735.96 L 1524.08582924 732.72 L 1527.30442557 724.62 L 1530.5230219 724.62 L 1533.74161824 739.2 L 1536.96021457 771.6 L 1540.17881091 804.0 L 1542.59275816 885.0 L 1545.81135449 885.0 L 1549.02995083 885.0 L 1552.24854716 885.0 L 1555.4671435 885.0 L 1558.68573983 885.0 L 1561.90433616 885.0 L 1565.1229325 885.0 L 1568.34152883 885.0 L 1571.56012517 885.0 L 1574.7787215 885.0 L 1577.99731784 885.0 L 1581.21591417 885.0 L 1584.43451051 885.0 L 1587.65310684 885.0 L 1590.87170317 885.0 L 1594.09029951 885.0 L 1597.30889584 885.0 L 1600.52749218 885.0 L 1603.74608851 885.0 L 1606.96468485 885.0 L 1610.18328118 885.0 L 1613.40187751 885.0 L 1616.62047385 885.0 L 1619.83907018 885.0 L 1619.83907018 885.0 z" fill="rgb(80%,80%,80%)" fill-rule="evenodd" stroke="rgb(80%,80%,80%)" stroke-linecap="round" stroke-width="0" /><path d="M 196.092981672 740.82 L 199.311578006 748.92 L 202.530174341 753.78 L 205.748770675 753.78 L 208.967367009 755.4 L 212.185963344 748.92 L 215.404559678 740.82 L 218.623156013 737.58 L 221.841752347 732.72 L 225.060348681 726.24 L 228.278945016 727.86 L 231.49754135 732.72 L 234.716137684 761.88 L 237.934734019 794.28 L 240.187751453 885.0 L 243.406347787 885.0 L 246.624944122 885.0 L 249.843540456 885.0 L 253.06213679 885.0 L 256.280733125 885.0 L 259.499329459 885.0 L 262.717925793 885.0 L 265.936522128 885.0 L 269.155118462 885.0 L 272.373714797 885.0 L 275.592311131 885.0 L 278.810907465 885.0 L 282.0295038 885.0 L 285.248100134 885.0 L 288.466696468 885.0 L 294.099240054 883.38 L 297.317836388 883.38 L 300.536432722 885.0 L 303.755029057 885.0 L 306.973625391 885.0 L 310.192221726 885.0 L 313.41081806 885.0 L 316.629414394 885.0 L 319.848010729 885.0 L 323.066607063 885.0 L 326.285203397 885.0 L 329.503799732 885.0 L 332.722396066 885.0 L 335.940992401 885.0 L 339.159588735 885.0 L 342.378185069 885.0 L 345.596781404 885.0 L 348.815377738 885.0 L 352.033974072 885.0 L 355.252570407 885.0 L 358.471166741 885.0 L 361.689763076 855.84 L 364.90835941 823.44 L 368.126955744 791.04 L 371.345552079 758.64 L 374.564148413 726.24 L 377.782744747 723.0 L 381.001341082 723.0 L 384.219937416 723.0 L 387.438533751 723.0 L 390.657130085 723.0 L 393.875726419 723.0 L 397.094322754 731.1 L 400.312919088 742.44 L 403.531515422 757.02 L 406.750111757 769.98 L 409.968708091 773.22 L 413.187304426 774.84 L 416.40590076 766.74 L 419.624497094 760.26 L 422.843093429 753.78 L 426.061689763 753.78 L 429.280286097 755.4 L 432.498882432 758.64 L 435.717478766 750.54 L 438.936075101 745.68 L 442.154671435 744.06 L 445.373267769 732.72 L 448.591864104 726.24 L 451.810460438 727.86 L 455.029056772 726.24 L 458.247653107 726.24 L 461.466249441 731.1 L 464.684845776 734.34 L 467.90344211 735.96 L 471.122038444 739.2 L 474.340634779 737.58 L 477.559231113 734.34 L 480.777827447 732.72 L 483.996423782 732.72 L 487.215020116 732.72 L 490.433616451 735.96 L 493.652212785 740.82 L 496.870809119 742.44 L 500.089405454 739.2 L 503.308001788 735.96 L 506.526598122 734.34 L 509.745194457 727.86 L 512.963790791 724.62 L 516.182387126 724.62 L 519.40098346 724.62 L 522.619579794 723.0 L 525.838176129 723.0 L 529.056772463 723.0 L 532.275368797 723.0 L 535.493965132 723.0 L 538.712561466 723.0 L 541.931157801 723.0 L 545.149754135 723.0 L 548.368350469 723.0 L 551.586946804 723.0 L 554.805543138 724.62 L 558.024139473 724.62 L 561.242735807 724.62 L 564.461332141 724.62 L 567.679928476 724.62 L 570.89852481 723.0 L 574.117121144 723.0 L 577.335717479 723.0 L 580.554313813 723.0 L 583.772910148 723.0 L 586.991506482 723.0 L 590.210102816 723.0 L 593.428699151 723.0 L 596.647295485 723.0 L 599.865891819 724.62 L 603.084488154 724.62 L 606.303084488 724.62 L 609.521680823 724.62 L 612.740277157 724.62 L 615.958873491 723.0 L 619.177469826 723.0 L 622.39606616 723.0 L 625.614662494 723.0 L 628.833258829 723.0 L 632.051855163 723.0 L 635.270451498 723.0 L 638.489047832 723.0 L 641.707644166 723.0 L 644.926240501 723.0 L 648.144836835 723.0 L 651.363433169 723.0 L 654.582029504 723.0 L 657.800625838 723.0 L 661.019222173 723.0 L 664.237818507 723.0 L 667.456414841 723.0 L 670.675011176 723.0 L 673.89360751 723.0 L 677.112203844 723.0 L 680.330800179 723.0 L 683.549396513 723.0 L 686.767992848 723.0 L 689.986589182 723.0 L 693.205185516 723.0 L 696.423781851 723.0 L 699.642378185 723.0 L 702.860974519 723.0 L 706.079570854 723.0 L 709.298167188 723.0 L 712.516763523 723.0 L 715.735359857 723.0 L 718.953956191 723.0 L 722.172552526 723.0 L 725.39114886 723.0 L 728.609745194 724.62 L 731.828341529 724.62 L 735.046937863 724.62 L 738.265534198 724.62 L 741.484130532 724.62 L 744.702726866 723.0 L 747.921323201 723.0 L 751.139919535 723.0 L 754.358515869 723.0 L 757.577112204 723.0 L 760.795708538 723.0 L 764.014304873 723.0 L 767.232901207 723.0 L 770.451497541 723.0 L 773.670093876 723.0 L 776.88869021 723.0 L 780.107286544 723.0 L 783.325882879 723.0 L 786.544479213 723.0 L 789.763075548 723.0 L 792.981671882 723.0 L 796.200268216 723.0 L 799.418864551 723.0 L 802.637460885 723.0 L 805.856057219 723.0 L 809.074653554 723.0 L 812.293249888 723.0 L 815.511846223 724.62 L 818.730442557 724.62 L 821.949038891 724.62 L 825.167635226 724.62 L 828.38623156 726.24 L 831.604827895 724.62 L 834.823424229 724.62 L 838.042020563 727.86 L 841.260616898 727.86 L 844.479213232 726.24 L 847.697809566 727.86 L 850.916405901 732.72 L 854.135002235 729.48 L 857.35359857 729.48 L 860.572194904 731.1 L 863.790791238 732.72 L 867.009387573 729.48 L 870.227983907 732.72 L 873.446580241 735.96 L 876.665176576 734.34 L 879.88377291 735.96 L 883.102369245 735.96 L 886.320965579 732.72 L 889.539561913 732.72 L 892.758158248 732.72 L 895.976754582 731.1 L 899.195350916 729.48 L 902.413947251 732.72 L 905.632543585 731.1 L 908.85113992 732.72 L 912.069736254 732.72 L 915.288332588 735.96 L 918.506928923 732.72 L 921.725525257 739.2 L 924.944121591 742.44 L 928.162717926 740.82 L 931.38131426 742.44 L 934.599910595 744.06 L 937.818506929 740.82 L 941.037103263 737.58 L 944.255699598 739.2 L 947.474295932 734.34 L 950.692892266 734.34 L 953.911488601 729.48 L 957.130084935 727.86 L 960.34868127 726.24 L 963.567277604 726.24 L 966.785873938 727.86 L 970.004470273 727.86 L 973.223066607 732.72 L 976.441662941 731.1 L 979.660259276 731.1 L 982.87885561 727.86 L 986.097451945 731.1 L 989.316048279 727.86 L 992.534644613 727.86 L 995.753240948 731.1 L 998.971837282 731.1 L 1002.19043362 727.86 L 1005.40902995 726.24 L 1008.62762629 726.24 L 1011.84622262 723.0 L 1015.06481895 723.0 L 1018.28341529 723.0 L 1021.50201162 723.0 L 1024.72060796 724.62 L 1027.93920429 724.62 L 1031.15780063 726.24 L 1034.37639696 729.48 L 1037.59499329 729.48 L 1040.81358963 727.86 L 1044.03218596 729.48 L 1047.2507823 727.86 L 1050.46937863 724.62 L 1053.68797497 724.62 L 1056.9065713 726.24 L 1060.12516764 724.62 L 1063.34376397 724.62 L 1066.5623603 724.62 L 1069.78095664 724.62 L 1072.99955297 723.0 L 1076.21814931 724.62 L 1079.43674564 726.24 L 1082.65534198 726.24 L 1085.87393831 727.86 L 1089.09253464 729.48 L 1092.31113098 727.86 L 1095.52972731 726.24 L 1098.74832365 727.86 L 1101.96691998 727.86 L 1105.18551632 729.48 L 1108.40411265 729.48 L 1111.62270899 731.1 L 1114.84130532 731.1 L 1118.05990165 729.48 L 1121.27849799 726.24 L 1124.49709432 727.86 L 1127.71569066 727.86 L 1130.93428699 727.86 L 1134.15288333 731.1 L 1137.37147966 731.1 L 1140.59007599 729.48 L 1143.80867233 727.86 L 1147.02726866 726.24 L 1150.245865 723.0 L 1153.46446133 724.62 L 1156.68305767 724.62 L 1159.901654 724.62 L 1163.12025034 724.62 L 1166.33884667 724.62 L 1169.557443 723.0 L 1172.77603934 723.0 L 1175.99463567 723.0 L 1179.21323201 723.0 L 1182.43182834 724.62 L 1185.65042468 724.62 L 1188.86902101 724.62 L 1192.08761734 724.62 L 1195.30621368 747.3 L 1198.52481001 778.08 L 1202.2261958 885.0 L 1205.44479213 885.0 L 1208.66338847 885.0 L 1211.8819848 885.0 L 1215.10058114 885.0 L 1218.31917747 885.0 L 1221.5377738 885.0 L 1224.75637014 885.0 L 1227.97496647 885.0 L 1231.19356281 885.0 L 1234.41215914 885.0 L 1237.63075548 885.0 L 1240.84935181 885.0 L 1244.06794814 885.0 L 1247.28654448 885.0 L 1250.50514081 885.0 L 1253.72373715 885.0 L 1256.94233348 885.0 L 1260.16092982 885.0 L 1263.37952615 885.0 L 1266.59812249 885.0 L 1269.81671882 885.0 L 1273.03531515 885.0 L 1276.25391149 885.0 L 1279.47250782 885.0 L 1282.69110416 885.0 L 1285.90970049 885.0 L 1289.12829683 885.0 L 1292.34689316 885.0 L 1295.56548949 885.0 L 1298.78408583 885.0 L 1302.00268216 885.0 L 1305.2212785 885.0 L 1308.43987483 885.0 L 1311.65847117 885.0 L 1314.8770675 885.0 L 1318.09566384 885.0 L 1321.31426017 885.0 L 1324.5328565 885.0 L 1327.75145284 885.0 L 1330.97004917 885.0 L 1334.18864551 885.0 L 1337.40724184 885.0 L 1340.62583818 885.0 L 1343.84443451 885.0 L 1347.06303084 885.0 L 1350.28162718 885.0 L 1353.50022351 885.0 L 1356.71881985 885.0 L 1359.93741618 885.0 L 1363.15601252 885.0 L 1366.37460885 885.0 L 1369.59320519 885.0 L 1372.81180152 885.0 L 1376.03039785 885.0 L 1379.24899419 885.0 L 1382.46759052 885.0 L 1385.68618686 885.0 L 1388.90478319 885.0 L 1392.12337953 885.0 L 1395.34197586 885.0 L 1398.56057219 885.0 L 1401.77916853 885.0 L 1404.99776486 885.0 L 1408.2163612 885.0 L 1411.43495753 885.0 L 1414.65355387 885.0 L 1417.8721502 885.0 L 1421.09074654 885.0 L 1424.30934287 885.0 L 1427.5279392 885.0 L 1430.74653554 885.0 L 1433.96513187 885.0 L 1437.18372821 885.0 L 1440.40232454 885.0 L 1443.62092088 885.0 L 1446.83951721 885.0 L 1450.05811354 885.0 L 1453.27670988 885.0 L 1456.49530621 885.0 L 1459.71390255 885.0 L 1462.93249888 885.0 L 1466.15109522 885.0 L 1469.36969155 854.22 L 1472.58828789 821.82 L 1475.80688422 795.9 L 1479.02548055 766.74 L 1482.24407689 735.96 L 1485.46267322 740.82 L 1488.68126956 745.68 L 1491.89986589 745.68 L 1495.11846223 744.06 L 1498.33705856 747.3 L 1501.55565489 740.82 L 1504.77425123 744.06 L 1507.99284756 740.82 L 1511.2114439 747.3 L 1514.43004023 744.06 L 1517.64863657 744.06 L 1520.8672329 735.96 L 1524.08582924 732.72 L 1527.30442557 724.62 L 1530.5230219 724.62 L 1533.74161824 739.2 L 1536.96021457 771.6 L 1540.17881091 804.0 L 1542.59275816 885.0 L 1545.81135449 885.0 L 1549.02995083 885.0 L 1552.24854716 885.0 L 1555.4671435 885.0 L 1558.68573983 885.0 L 1561.90433616 885.0 L 1565.1229325 885.0 L 1568.34152883 885.0 L 1571.56012517 885.0 L 1574.7787215 885.0 L 1577.99731784 885.0 L 1581.21591417 885.0 L 1584.43451051 885.0 L 1587.65310684 885.0 L 1590.87170317 885.0 L 1594.09029951 885.0 L 1597.30889584 885.0 L 1600.52749218 885.0 L 1603.74608851 885.0 L 1606.96468485 885.0 L 1610.18328118 885.0 L 1613.40187751 885.0 L 1616.62047385 885.0 L 1619.83907018 885.0" fill="none" stroke="rgb(50%,50%,50%)" stroke-linecap="round" stroke-width="2" /><path d="M 175.0 720.0 L 175.0 888.0" fill="none" fill-rule="evenodd" stroke="black" stroke-linecap="round" stroke-width="3" /><path d="M 175.0 888.0 L 155.0 888.0" fill="none" fill-rule="evenodd" stroke="black" stroke-linecap="round" stroke-width="3" /><text baseline-shift="-50%" fill="black" font-family="Nimbus Sans L" font-size="17.0pt" text-anchor="end" x="150.0" y="888.0">0 %</text><path d="M 175.0 854.4 L 155.0 854.4" fill="none" fill-rule="evenodd" stroke="black" stroke-linecap="round" stroke-width="3" /><text baseline-shift="-50%" fill="black" font-family="Nimbus Sans L" font-size="17.0pt" text-anchor="end" x="150.0" y="854.4">20 %</text><path d="M 175.0 820.8 L 155.0 820.8" fill="none" fill-rule="evenodd" stroke="black" stroke-linecap="round" stroke-width="3" /><text baseline-shift="-50%" fill="black" font-family="Nimbus Sans L" font-size="17.0pt" text-anchor="end" x="150.0" y="820.8">40 %</text><path d="M 175.0 787.2 L 155.0 787.2" fill="none" fill-rule="evenodd" stroke="black" stroke-linecap="round" stroke-width="3" /><text baseline-shift="-50%" fill="black" font-family="Nimbus Sans L" font-size="17.0pt" text-anchor="end" x="150.0" y="787.2">60 %</text><path d="M 175.0 753.6 L 155.0 753.6" fill="none" fill-rule="evenodd" stroke="black" stroke-linecap="round" stroke-width="3" /><text baseline-shift="-50%" fill="black" font-family="Nimbus Sans L" font-size="17.0pt" text-anchor="end" x="150.0" y="753.6">80 %</text><path d="M 175.0 720.0 L 155.0 720.0" fill="none" fill-rule="evenodd" stroke="black" stroke-linecap="round" stroke-width="3" /><text baseline-shift="-50%" fill="black" font-family="Nimbus Sans L" font-size="17.0pt" text-anchor="end" x="150.0" y="720.0">100 %</text><text fill="black" font-family="Nimbus Sans L" font-size="20pt" text-anchor="middle" transform="rotate(270 45.0,801.0)" x="45.0" y="801.0">Nucleotide Identity</text><text baseline-shift="-50%" fill="black" font-family="Nimbus Sans L" font-size="28.0pt" text-anchor="middle" x="22.5" y="649.8">B</text><path d="M 509.906124274 885.0 L 509.906124274 723.0 L 834.984354046 723.0 L 834.984354046 885.0 z" fill="rgb(2%,25%,100%)" fill-opacity="0.45" fill-rule="evenodd" stroke="none" stroke-linecap="round" stroke-width="3" /><path d="M 223.451050514 885.0 L 223.451050514 723.0 L 226.669646848 723.0 L 226.669646848 885.0 z" fill="rgb(100%,2%,36%)" fill-opacity="0.36" fill-rule="evenodd" stroke="none" stroke-linecap="round" stroke-width="3" /><path d="M 371.506481895 885.0 L 371.506481895 723.0 L 394.036656236 723.0 L 394.036656236 885.0 z" fill="rgb(100%,2%,36%)" fill-opacity="0.36" fill-rule="evenodd" stroke="none" stroke-linecap="round" stroke-width="3" /><path d="M 445.534197586 885.0 L 445.534197586 723.0 L 448.75279392 723.0 L 448.75279392 885.0 z" fill="rgb(100%,2%,36%)" fill-opacity="0.36" fill-rule="evenodd" stroke="none" stroke-linecap="round" stroke-width="3" /><path d="M 451.971390255 885.0 L 451.971390255 723.0 L 458.408582924 723.0 L 458.408582924 885.0 z" fill="rgb(100%,2%,36%)" fill-opacity="0.36" fill-rule="evenodd" stroke="none" stroke-linecap="round" stroke-width="3" /><path d="M 509.906124274 885.0 L 509.906124274 723.0 L 834.984354046 723.0 L 834.984354046 885.0 z" fill="rgb(100%,2%,36%)" fill-opacity="0.36" fill-rule="evenodd" stroke="none" stroke-linecap="round" stroke-width="3" /><path d="M 841.421546714 885.0 L 841.421546714 723.0 L 844.640143049 723.0 L 844.640143049 885.0 z" fill="rgb(100%,2%,36%)" fill-opacity="0.36" fill-rule="evenodd" stroke="none" stroke-linecap="round" stroke-width="3" /><path d="M 957.291014752 885.0 L 957.291014752 723.0 L 963.728207421 723.0 L 963.728207421 885.0 z" fill="rgb(100%,2%,36%)" fill-opacity="0.36" fill-rule="evenodd" stroke="none" stroke-linecap="round" stroke-width="3" /><path d="M 1002.35136343 885.0 L 1002.35136343 723.0 L 1031.31873044 723.0 L 1031.31873044 885.0 z" fill="rgb(100%,2%,36%)" fill-opacity="0.36" fill-rule="evenodd" stroke="none" stroke-linecap="round" stroke-width="3" /><path d="M 1047.41171211 885.0 L 1047.41171211 723.0 L 1082.81627179 723.0 L 1082.81627179 885.0 z" fill="rgb(100%,2%,36%)" fill-opacity="0.36" fill-rule="evenodd" stroke="none" stroke-linecap="round" stroke-width="3" /><path d="M 1092.4720608 885.0 L 1092.4720608 723.0 L 1095.69065713 723.0 L 1095.69065713 885.0 z" fill="rgb(100%,2%,36%)" fill-opacity="0.36" fill-rule="evenodd" stroke="none" stroke-linecap="round" stroke-width="3" /><path d="M 1118.22083147 885.0 L 1118.22083147 723.0 L 1121.43942781 723.0 L 1121.43942781 885.0 z" fill="rgb(100%,2%,36%)" fill-opacity="0.36" fill-rule="evenodd" stroke="none" stroke-linecap="round" stroke-width="3" /><path d="M 1143.96960215 885.0 L 1143.96960215 723.0 L 1192.24854716 723.0 L 1192.24854716 885.0 z" fill="rgb(100%,2%,36%)" fill-opacity="0.36" fill-rule="evenodd" stroke="none" stroke-linecap="round" stroke-width="3" /><path d="M 1526.98256594 885.0 L 1526.98256594 723.0 L 1533.41975861 723.0 L 1533.41975861 885.0 z" fill="rgb(100%,2%,36%)" fill-opacity="0.36" fill-rule="evenodd" stroke="none" stroke-linecap="round" stroke-width="3" /><path d="M 440.648044693 600.0 L 440.648044693 620.0 z" fill="none" stroke="rgb(0%,0%,0%)" stroke-linecap="round" stroke-width="3" /><text fill="black" font-family="Nimbus Sans L" font-size="17.0pt" text-anchor="middle" x="440.648044693" y="642.0">892 kb</text><path d="M 762.43575419 600.0 L 762.43575419 620.0 z" fill="none" stroke="rgb(0%,0%,0%)" stroke-linecap="round" stroke-width="3" /><text fill="black" font-family="Nimbus Sans L" font-size="17.0pt" text-anchor="middle" x="762.43575419" y="642.0">894 kb</text><path d="M 1084.22346369 600.0 L 1084.22346369 620.0 z" fill="none" stroke="rgb(0%,0%,0%)" stroke-linecap="round" stroke-width="3" /><text fill="black" font-family="Nimbus Sans L" font-size="17.0pt" text-anchor="middle" x="1084.22346369" y="642.0">896 kb</text><path d="M 1406.01117318 600.0 L 1406.01117318 620.0 z" fill="none" stroke="rgb(0%,0%,0%)" stroke-linecap="round" stroke-width="3" /><text fill="black" font-family="Nimbus Sans L" font-size="17.0pt" text-anchor="middle" x="1406.01117318" y="642.0">898 kb</text><path d="M 180.0 566.4 L 1620.0 566.4" fill="none" stroke="rgb(70%,70%,70%)" stroke-linecap="round" stroke-width="5" /><path d="M 180.0 516.0 L 1620.0 516.0" fill="none" stroke="rgb(70%,70%,70%)" stroke-linecap="round" stroke-width="5" /><text baseline-shift="-50%" fill="black" font-family="Nimbus Sans L" font-size="15pt" text-anchor="end" x="160.0" y="516.0">Forward strand</text><text baseline-shift="-50%" fill="black" font-family="Nimbus Sans L" font-size="15pt" text-anchor="end" x="160.0" y="566.4">Reverse strand</text><path d="M 1466.18547486 532.8 L 1520.79284916 532.8 L 1532.31284916 516.0 L 1520.79284916 499.2 L 1466.18547486 499.2 z" fill="rgb(0%,0%,0%)" stroke="white" stroke-linecap="round" stroke-width="1" /><text baseline-shift="-50%" fill="white" font-family="Nimbus Sans L" font-size="15pt" font-weight="bold" stroke="black" stroke-width="0.4" text-anchor="middle" transform="rotate(-25,1499.24916201,516.0)" x="1499.24916201" y="516.0">PLES_RS04330</text><path d="M 1192.66592179 532.8 L 1454.34368715 532.8 L 1465.86368715 516.0 L 1454.34368715 499.2 L 1192.66592179 499.2 z" fill="rgb(0%,0%,0%)" stroke="white" stroke-linecap="round" stroke-width="1" /><text baseline-shift="-50%" fill="white" font-family="Nimbus Sans L" font-size="15pt" font-weight="bold" stroke="black" stroke-width="0.4" text-anchor="middle" x="1329.26480447" y="516.0">PLES_RS04325</text><path d="M 1108.84022346 532.8 L 1181.30681564 532.8 L 1192.82681564 516.0 L 1181.30681564 499.2 L 1108.84022346 499.2 z" fill="rgb(0%,0%,0%)" stroke="white" stroke-linecap="round" stroke-width="1" /><text baseline-shift="-50%" fill="white" font-family="Nimbus Sans L" font-size="15pt" font-weight="bold" stroke="black" stroke-width="0.4" text-anchor="middle" transform="rotate(-25,1150.83351955,516.0)" x="1150.83351955" y="516.0">PLES_RS04320</text><path d="M 702.905027933 532.8 L 1091.04536313 532.8 L 1102.56536313 516.0 L 1091.04536313 499.2 L 702.905027933 499.2 z" fill="rgb(0%,0%,0%)" stroke="white" stroke-linecap="round" stroke-width="1" /><text baseline-shift="-50%" fill="white" font-family="Nimbus Sans L" font-size="15pt" font-weight="bold" stroke="black" stroke-width="0.4" text-anchor="middle" x="902.735195531" y="516.0">PLES_RS04315</text><path d="M 637.74301676 532.8 L 674.973854749 532.8 L 686.493854749 516.0 L 674.973854749 499.2 L 637.74301676 499.2 z" fill="rgb(0%,0%,0%)" stroke="white" stroke-linecap="round" stroke-width="1" /><text baseline-shift="-50%" fill="white" font-family="Nimbus Sans L" font-size="15pt" font-weight="bold" stroke="black" stroke-width="0.4" text-anchor="middle" transform="rotate(-25,662.118435754,516.0)" x="662.118435754" y="516.0">PLES_RS04310</text><path d="M 390.770949721 532.8 L 500.404022346 532.8 L 511.924022346 516.0 L 500.404022346 499.2 L 390.770949721 499.2 z" fill="rgb(0%,0%,0%)" stroke="white" stroke-linecap="round" stroke-width="1" /><text baseline-shift="-50%" fill="white" font-family="Nimbus Sans L" font-size="15pt" font-weight="bold" stroke="black" stroke-width="0.4" text-anchor="middle" x="451.347486034" y="516.0">PLES_RS04305</text><path d="M 359.23575419 532.8 L 379.090055866 532.8 L 390.610055866 516.0 L 379.090055866 499.2 L 359.23575419 499.2 z" fill="rgb(0%,0%,0%)" stroke="white" stroke-linecap="round" stroke-width="1" /><text baseline-shift="-50%" fill="white" font-family="Nimbus Sans L" font-size="15pt" font-weight="bold" stroke="black" stroke-width="0.4" text-anchor="middle" transform="rotate(-25,374.922905028,516.0)" x="374.922905028" y="516.0">PLES_RS04300</text><path d="M 282.972067039 532.8 L 347.233072626 532.8 L 358.753072626 516.0 L 347.233072626 499.2 L 282.972067039 499.2 z" fill="rgb(0%,0%,0%)" stroke="white" stroke-linecap="round" stroke-width="1" /><text baseline-shift="-50%" fill="white" font-family="Nimbus Sans L" font-size="15pt" font-weight="bold" stroke="black" stroke-width="0.4" text-anchor="middle" transform="rotate(-25,320.862569832,516.0)" x="320.862569832" y="516.0">PLES_RS04295</text><path d="M 230.520670391 532.8 L 272.095642458 532.8 L 283.615642458 516.0 L 272.095642458 499.2 L 230.520670391 499.2 z" fill="rgb(0%,0%,0%)" stroke="white" stroke-linecap="round" stroke-width="1" /><text baseline-shift="-50%" fill="white" font-family="Nimbus Sans L" font-size="15pt" font-weight="bold" stroke="black" stroke-width="0.4" text-anchor="middle" transform="rotate(-25,257.068156425,516.0)" x="257.068156425" y="516.0">PLES_RS04290</text><path d="M 180.0 532.8 L 219.64424581 532.8 L 231.16424581 516.0 L 219.64424581 499.2 L 180.0 499.2 z" fill="rgb(0%,0%,0%)" stroke="white" stroke-linecap="round" stroke-width="1" /><text baseline-shift="-50%" fill="white" font-family="Nimbus Sans L" font-size="15pt" font-weight="bold" stroke="black" stroke-width="0.4" text-anchor="middle" transform="rotate(-25,205.582122905,516.0)" x="205.582122905" y="516.0">PLES_RS04285</text><path d="M 180.0 465.6 L 1620.0 465.6" fill="none" stroke="rgb(70%,70%,70%)" stroke-linecap="round" stroke-width="5" /><text baseline-shift="-50%" fill="black" font-family="Nimbus Sans L" font-size="15pt" text-anchor="end" x="160.0" y="465.6">Large Features</text><path d="M 168.48 482.4 L 1620.0 482.4 L 1631.52 448.8 L 180.0 448.8 z" fill="rgb(20%,20%,20%)" stroke="white" stroke-linecap="round" stroke-width="1" /><text baseline-shift="-50%" fill="white" font-family="Nimbus Sans L" font-size="15pt" font-weight="bold" stroke="black" stroke-width="0.2" text-anchor="middle" x="900.0" y="465.6">LES prophage 2</text><path d="M 196.089385475 405.0 L 196.089385475 260.82 L 199.30726257 268.92 L 202.525139665 273.78 L 205.74301676 273.78 L 208.960893855 275.4 L 212.17877095 268.92 L 215.396648045 260.82 L 218.61452514 257.58 L 221.832402235 252.72 L 225.05027933 246.24 L 228.268156425 247.86 L 231.48603352 252.72 L 234.703910615 281.88 L 237.921787709 314.28 L 241.139664804 346.68 L 244.357541899 377.46 L 247.575418994 405.0 L 250.793296089 405.0 L 254.011173184 405.0 L 257.229050279 405.0 L 260.446927374 405.0 L 263.664804469 405.0 L 266.882681564 405.0 L 270.100558659 405.0 L 273.318435754 405.0 L 276.536312849 405.0 L 279.754189944 405.0 L 282.972067039 405.0 L 286.189944134 405.0 L 289.407821229 405.0 L 291.982122905 405.0 L 295.2 405.0 L 298.417877095 405.0 L 301.63575419 405.0 L 304.853631285 405.0 L 308.07150838 405.0 L 311.289385475 405.0 L 314.50726257 405.0 L 317.725139665 405.0 L 320.94301676 405.0 L 324.160893855 405.0 L 327.37877095 405.0 L 330.596648045 405.0 L 333.81452514 405.0 L 337.032402235 405.0 L 340.25027933 405.0 L 343.468156425 405.0 L 346.68603352 405.0 L 349.903910615 405.0 L 353.121787709 405.0 L 356.339664804 405.0 L 359.557541899 403.38 L 362.775418994 403.38 L 365.993296089 403.38 L 368.084916201 311.04 L 371.302793296 278.64 L 374.520670391 246.24 L 377.738547486 243.0 L 380.956424581 243.0 L 384.174301676 243.0 L 387.392178771 243.0 L 390.610055866 243.0 L 393.827932961 243.0 L 397.045810056 251.1 L 400.263687151 262.44 L 403.481564246 277.02 L 406.699441341 289.98 L 409.917318436 293.22 L 413.135195531 294.84 L 416.353072626 286.74 L 419.570949721 280.26 L 422.788826816 273.78 L 426.006703911 273.78 L 429.224581006 275.4 L 432.442458101 278.64 L 435.660335196 270.54 L 438.878212291 265.68 L 442.096089385 264.06 L 445.31396648 252.72 L 448.531843575 246.24 L 451.74972067 247.86 L 454.967597765 246.24 L 458.18547486 246.24 L 461.403351955 251.1 L 464.62122905 254.34 L 467.839106145 255.96 L 471.05698324 259.2 L 474.274860335 257.58 L 477.49273743 254.34 L 480.710614525 252.72 L 483.92849162 252.72 L 487.146368715 252.72 L 490.36424581 255.96 L 493.582122905 260.82 L 496.8 262.44 L 500.017877095 259.2 L 503.23575419 255.96 L 506.453631285 254.34 L 509.67150838 247.86 L 512.889385475 244.62 L 516.10726257 244.62 L 519.325139665 244.62 L 522.54301676 243.0 L 525.760893855 243.0 L 528.97877095 243.0 L 532.196648045 243.0 L 535.41452514 243.0 L 538.632402235 243.0 L 541.85027933 243.0 L 545.068156425 243.0 L 548.28603352 243.0 L 551.503910615 243.0 L 554.721787709 244.62 L 557.939664804 244.62 L 561.157541899 244.62 L 564.375418994 244.62 L 567.593296089 244.62 L 570.811173184 243.0 L 574.029050279 243.0 L 577.246927374 243.0 L 580.464804469 243.0 L 583.682681564 243.0 L 586.900558659 243.0 L 590.118435754 243.0 L 593.336312849 243.0 L 596.554189944 243.0 L 599.772067039 244.62 L 602.989944134 244.62 L 606.207821229 244.62 L 609.425698324 244.62 L 612.643575419 244.62 L 615.861452514 243.0 L 619.079329609 243.0 L 622.297206704 243.0 L 625.515083799 243.0 L 628.732960894 243.0 L 631.950837989 243.0 L 635.168715084 243.0 L 638.386592179 243.0 L 641.604469274 243.0 L 644.822346369 243.0 L 648.040223464 243.0 L 651.258100559 243.0 L 654.475977654 243.0 L 657.693854749 243.0 L 660.911731844 243.0 L 664.129608939 243.0 L 667.347486034 243.0 L 670.565363128 243.0 L 673.783240223 243.0 L 677.001117318 243.0 L 680.218994413 243.0 L 683.436871508 243.0 L 686.654748603 243.0 L 689.872625698 243.0 L 693.090502793 243.0 L 696.308379888 243.0 L 699.526256983 243.0 L 702.744134078 243.0 L 705.962011173 243.0 L 709.179888268 243.0 L 712.397765363 243.0 L 715.615642458 243.0 L 718.833519553 243.0 L 722.051396648 243.0 L 725.269273743 243.0 L 728.487150838 244.62 L 731.705027933 244.62 L 734.922905028 244.62 L 738.140782123 244.62 L 741.358659218 244.62 L 744.576536313 243.0 L 747.794413408 243.0 L 751.012290503 243.0 L 754.230167598 243.0 L 757.448044693 243.0 L 760.665921788 243.0 L 763.883798883 243.0 L 767.101675978 243.0 L 770.319553073 243.0 L 773.537430168 243.0 L 776.755307263 243.0 L 779.973184358 243.0 L 783.191061453 243.0 L 786.408938547 243.0 L 789.626815642 243.0 L 792.844692737 243.0 L 796.062569832 243.0 L 799.280446927 243.0 L 802.498324022 243.0 L 805.716201117 243.0 L 808.934078212 243.0 L 812.151955307 243.0 L 815.369832402 244.62 L 818.587709497 244.62 L 821.805586592 244.62 L 825.023463687 244.62 L 828.241340782 246.24 L 831.459217877 244.62 L 834.677094972 244.62 L 837.894972067 247.86 L 841.112849162 247.86 L 844.330726257 246.24 L 847.548603352 247.86 L 850.766480447 252.72 L 853.984357542 249.48 L 857.202234637 249.48 L 860.420111732 251.1 L 863.637988827 252.72 L 866.855865922 249.48 L 870.073743017 252.72 L 873.291620112 255.96 L 876.509497207 254.34 L 879.727374302 255.96 L 882.945251397 255.96 L 886.163128492 252.72 L 889.381005587 252.72 L 892.598882682 252.72 L 895.816759777 251.1 L 899.034636872 249.48 L 902.252513966 252.72 L 905.470391061 251.1 L 908.688268156 252.72 L 911.906145251 252.72 L 915.124022346 255.96 L 918.341899441 252.72 L 921.559776536 259.2 L 924.777653631 262.44 L 927.995530726 260.82 L 931.213407821 262.44 L 934.431284916 264.06 L 937.649162011 260.82 L 940.867039106 257.58 L 944.084916201 259.2 L 947.302793296 254.34 L 950.520670391 254.34 L 953.738547486 249.48 L 956.956424581 247.86 L 960.174301676 246.24 L 963.392178771 246.24 L 966.610055866 247.86 L 969.827932961 247.86 L 973.045810056 252.72 L 976.263687151 251.1 L 979.481564246 251.1 L 982.699441341 247.86 L 985.917318436 251.1 L 989.135195531 247.86 L 992.353072626 247.86 L 995.570949721 251.1 L 998.788826816 251.1 L 1002.00670391 247.86 L 1005.22458101 246.24 L 1008.4424581 246.24 L 1011.6603352 243.0 L 1014.87821229 243.0 L 1018.09608939 243.0 L 1021.31396648 243.0 L 1024.53184358 244.62 L 1027.74972067 244.62 L 1030.96759777 246.24 L 1034.18547486 249.48 L 1037.40335196 249.48 L 1040.62122905 247.86 L 1043.83910615 249.48 L 1047.05698324 247.86 L 1050.27486034 244.62 L 1053.49273743 244.62 L 1056.71061453 246.24 L 1059.92849162 244.62 L 1063.14636872 244.62 L 1066.36424581 244.62 L 1069.58212291 244.62 L 1072.8 243.0 L 1076.01787709 244.62 L 1079.23575419 246.24 L 1082.45363128 246.24 L 1085.67150838 247.86 L 1088.88938547 249.48 L 1092.10726257 247.86 L 1095.32513966 246.24 L 1098.54301676 247.86 L 1101.76089385 247.86 L 1104.97877095 249.48 L 1108.19664804 249.48 L 1111.41452514 251.1 L 1114.63240223 251.1 L 1117.85027933 249.48 L 1121.06815642 246.24 L 1124.28603352 247.86 L 1127.50391061 247.86 L 1130.72178771 247.86 L 1133.9396648 251.1 L 1137.1575419 251.1 L 1140.37541899 249.48 L 1143.59329609 247.86 L 1146.81117318 246.24 L 1150.02905028 243.0 L 1153.24692737 244.62 L 1156.46480447 244.62 L 1159.68268156 244.62 L 1162.90055866 244.62 L 1166.11843575 244.62 L 1169.33631285 243.0 L 1172.55418994 243.0 L 1175.77206704 243.0 L 1178.98994413 243.0 L 1182.20782123 244.62 L 1185.42569832 244.62 L 1188.64357542 244.62 L 1191.86145251 244.62 L 1195.07932961 267.3 L 1198.2972067 298.08 L 1201.5150838 330.48 L 1204.73296089 362.88 L 1207.95083799 395.28 L 1211.16871508 405.0 L 1214.38659218 405.0 L 1217.60446927 405.0 L 1220.82234637 405.0 L 1224.04022346 405.0 L 1227.25810056 405.0 L 1230.47597765 405.0 L 1233.69385475 405.0 L 1236.91173184 405.0 L 1240.12960894 405.0 L 1243.34748603 405.0 L 1246.56536313 405.0 L 1249.78324022 405.0 L 1253.00111732 405.0 L 1256.21899441 405.0 L 1259.43687151 405.0 L 1262.6547486 405.0 L 1265.8726257 405.0 L 1269.09050279 405.0 L 1272.30837989 405.0 L 1275.52625698 405.0 L 1278.74413408 405.0 L 1281.96201117 405.0 L 1285.17988827 405.0 L 1288.39776536 405.0 L 1291.61564246 405.0 L 1294.83351955 405.0 L 1298.05139665 405.0 L 1301.26927374 405.0 L 1304.48715084 405.0 L 1307.70502793 405.0 L 1310.92290503 405.0 L 1314.14078212 405.0 L 1317.35865922 405.0 L 1320.57653631 405.0 L 1323.79441341 405.0 L 1327.0122905 405.0 L 1330.2301676 405.0 L 1333.44804469 405.0 L 1336.66592179 405.0 L 1339.88379888 405.0 L 1343.10167598 405.0 L 1346.31955307 405.0 L 1349.53743017 405.0 L 1352.75530726 405.0 L 1355.97318436 405.0 L 1359.19106145 405.0 L 1362.40893855 405.0 L 1365.62681564 405.0 L 1368.84469274 405.0 L 1372.06256983 405.0 L 1375.28044693 405.0 L 1378.49832402 405.0 L 1381.71620112 405.0 L 1384.93407821 405.0 L 1388.15195531 405.0 L 1391.3698324 405.0 L 1394.5877095 405.0 L 1397.80558659 405.0 L 1401.02346369 405.0 L 1404.24134078 405.0 L 1407.45921788 405.0 L 1410.67709497 405.0 L 1413.89497207 405.0 L 1417.11284916 405.0 L 1420.33072626 405.0 L 1423.54860335 405.0 L 1426.76648045 405.0 L 1429.98435754 405.0 L 1433.20223464 405.0 L 1436.42011173 405.0 L 1439.63798883 405.0 L 1442.85586592 405.0 L 1446.07374302 405.0 L 1449.29162011 405.0 L 1452.50949721 405.0 L 1455.7273743 405.0 L 1458.9452514 405.0 L 1462.16312849 405.0 L 1465.38100559 405.0 L 1468.59888268 405.0 L 1471.81675978 405.0 L 1475.51731844 315.9 L 1478.73519553 286.74 L 1481.95307263 255.96 L 1485.17094972 260.82 L 1488.38882682 265.68 L 1491.60670391 265.68 L 1494.82458101 264.06 L 1498.0424581 267.3 L 1501.2603352 260.82 L 1504.47821229 264.06 L 1507.69608939 260.82 L 1510.91396648 267.3 L 1514.13184358 264.06 L 1517.34972067 264.06 L 1520.56759777 255.96 L 1523.78547486 252.72 L 1527.00335196 244.62 L 1530.22122905 244.62 L 1533.43910615 259.2 L 1536.65698324 291.6 L 1539.87486034 324.0 L 1543.09273743 356.4 L 1546.31061453 387.18 L 1549.52849162 405.0 L 1552.74636872 405.0 L 1555.96424581 405.0 L 1559.18212291 405.0 L 1562.4 405.0 L 1565.61787709 405.0 L 1568.83575419 405.0 L 1572.05363128 405.0 L 1575.27150838 405.0 L 1578.48938547 405.0 L 1581.70726257 405.0 L 1584.92513966 405.0 L 1588.14301676 405.0 L 1591.36089385 405.0 L 1594.57877095 405.0 L 1597.79664804 405.0 L 1601.01452514 405.0 L 1604.23240223 405.0 L 1607.45027933 405.0 L 1610.66815642 405.0 L 1613.88603352 405.0 L 1617.10391061 405.0 L 1620.32178771 405.0 L 1623.5396648 405.0 L 1626.7575419 405.0 L 1626.7575419 405.0 z" fill="rgb(80%,80%,80%)" fill-rule="evenodd" stroke="rgb(80%,80%,80%)" stroke-linecap="round" stroke-width="0" /><path d="M 196.089385475 260.82 L 199.30726257 268.92 L 202.525139665 273.78 L 205.74301676 273.78 L 208.960893855 275.4 L 212.17877095 268.92 L 215.396648045 260.82 L 218.61452514 257.58 L 221.832402235 252.72 L 225.05027933 246.24 L 228.268156425 247.86 L 231.48603352 252.72 L 234.703910615 281.88 L 237.921787709 314.28 L 241.139664804 346.68 L 244.357541899 377.46 L 247.575418994 405.0 L 250.793296089 405.0 L 254.011173184 405.0 L 257.229050279 405.0 L 260.446927374 405.0 L 263.664804469 405.0 L 266.882681564 405.0 L 270.100558659 405.0 L 273.318435754 405.0 L 276.536312849 405.0 L 279.754189944 405.0 L 282.972067039 405.0 L 286.189944134 405.0 L 289.407821229 405.0 L 291.982122905 405.0 L 295.2 405.0 L 298.417877095 405.0 L 301.63575419 405.0 L 304.853631285 405.0 L 308.07150838 405.0 L 311.289385475 405.0 L 314.50726257 405.0 L 317.725139665 405.0 L 320.94301676 405.0 L 324.160893855 405.0 L 327.37877095 405.0 L 330.596648045 405.0 L 333.81452514 405.0 L 337.032402235 405.0 L 340.25027933 405.0 L 343.468156425 405.0 L 346.68603352 405.0 L 349.903910615 405.0 L 353.121787709 405.0 L 356.339664804 405.0 L 359.557541899 403.38 L 362.775418994 403.38 L 365.993296089 403.38 L 368.084916201 311.04 L 371.302793296 278.64 L 374.520670391 246.24 L 377.738547486 243.0 L 380.956424581 243.0 L 384.174301676 243.0 L 387.392178771 243.0 L 390.610055866 243.0 L 393.827932961 243.0 L 397.045810056 251.1 L 400.263687151 262.44 L 403.481564246 277.02 L 406.699441341 289.98 L 409.917318436 293.22 L 413.135195531 294.84 L 416.353072626 286.74 L 419.570949721 280.26 L 422.788826816 273.78 L 426.006703911 273.78 L 429.224581006 275.4 L 432.442458101 278.64 L 435.660335196 270.54 L 438.878212291 265.68 L 442.096089385 264.06 L 445.31396648 252.72 L 448.531843575 246.24 L 451.74972067 247.86 L 454.967597765 246.24 L 458.18547486 246.24 L 461.403351955 251.1 L 464.62122905 254.34 L 467.839106145 255.96 L 471.05698324 259.2 L 474.274860335 257.58 L 477.49273743 254.34 L 480.710614525 252.72 L 483.92849162 252.72 L 487.146368715 252.72 L 490.36424581 255.96 L 493.582122905 260.82 L 496.8 262.44 L 500.017877095 259.2 L 503.23575419 255.96 L 506.453631285 254.34 L 509.67150838 247.86 L 512.889385475 244.62 L 516.10726257 244.62 L 519.325139665 244.62 L 522.54301676 243.0 L 525.760893855 243.0 L 528.97877095 243.0 L 532.196648045 243.0 L 535.41452514 243.0 L 538.632402235 243.0 L 541.85027933 243.0 L 545.068156425 243.0 L 548.28603352 243.0 L 551.503910615 243.0 L 554.721787709 244.62 L 557.939664804 244.62 L 561.157541899 244.62 L 564.375418994 244.62 L 567.593296089 244.62 L 570.811173184 243.0 L 574.029050279 243.0 L 577.246927374 243.0 L 580.464804469 243.0 L 583.682681564 243.0 L 586.900558659 243.0 L 590.118435754 243.0 L 593.336312849 243.0 L 596.554189944 243.0 L 599.772067039 244.62 L 602.989944134 244.62 L 606.207821229 244.62 L 609.425698324 244.62 L 612.643575419 244.62 L 615.861452514 243.0 L 619.079329609 243.0 L 622.297206704 243.0 L 625.515083799 243.0 L 628.732960894 243.0 L 631.950837989 243.0 L 635.168715084 243.0 L 638.386592179 243.0 L 641.604469274 243.0 L 644.822346369 243.0 L 648.040223464 243.0 L 651.258100559 243.0 L 654.475977654 243.0 L 657.693854749 243.0 L 660.911731844 243.0 L 664.129608939 243.0 L 667.347486034 243.0 L 670.565363128 243.0 L 673.783240223 243.0 L 677.001117318 243.0 L 680.218994413 243.0 L 683.436871508 243.0 L 686.654748603 243.0 L 689.872625698 243.0 L 693.090502793 243.0 L 696.308379888 243.0 L 699.526256983 243.0 L 702.744134078 243.0 L 705.962011173 243.0 L 709.179888268 243.0 L 712.397765363 243.0 L 715.615642458 243.0 L 718.833519553 243.0 L 722.051396648 243.0 L 725.269273743 243.0 L 728.487150838 244.62 L 731.705027933 244.62 L 734.922905028 244.62 L 738.140782123 244.62 L 741.358659218 244.62 L 744.576536313 243.0 L 747.794413408 243.0 L 751.012290503 243.0 L 754.230167598 243.0 L 757.448044693 243.0 L 760.665921788 243.0 L 763.883798883 243.0 L 767.101675978 243.0 L 770.319553073 243.0 L 773.537430168 243.0 L 776.755307263 243.0 L 779.973184358 243.0 L 783.191061453 243.0 L 786.408938547 243.0 L 789.626815642 243.0 L 792.844692737 243.0 L 796.062569832 243.0 L 799.280446927 243.0 L 802.498324022 243.0 L 805.716201117 243.0 L 808.934078212 243.0 L 812.151955307 243.0 L 815.369832402 244.62 L 818.587709497 244.62 L 821.805586592 244.62 L 825.023463687 244.62 L 828.241340782 246.24 L 831.459217877 244.62 L 834.677094972 244.62 L 837.894972067 247.86 L 841.112849162 247.86 L 844.330726257 246.24 L 847.548603352 247.86 L 850.766480447 252.72 L 853.984357542 249.48 L 857.202234637 249.48 L 860.420111732 251.1 L 863.637988827 252.72 L 866.855865922 249.48 L 870.073743017 252.72 L 873.291620112 255.96 L 876.509497207 254.34 L 879.727374302 255.96 L 882.945251397 255.96 L 886.163128492 252.72 L 889.381005587 252.72 L 892.598882682 252.72 L 895.816759777 251.1 L 899.034636872 249.48 L 902.252513966 252.72 L 905.470391061 251.1 L 908.688268156 252.72 L 911.906145251 252.72 L 915.124022346 255.96 L 918.341899441 252.72 L 921.559776536 259.2 L 924.777653631 262.44 L 927.995530726 260.82 L 931.213407821 262.44 L 934.431284916 264.06 L 937.649162011 260.82 L 940.867039106 257.58 L 944.084916201 259.2 L 947.302793296 254.34 L 950.520670391 254.34 L 953.738547486 249.48 L 956.956424581 247.86 L 960.174301676 246.24 L 963.392178771 246.24 L 966.610055866 247.86 L 969.827932961 247.86 L 973.045810056 252.72 L 976.263687151 251.1 L 979.481564246 251.1 L 982.699441341 247.86 L 985.917318436 251.1 L 989.135195531 247.86 L 992.353072626 247.86 L 995.570949721 251.1 L 998.788826816 251.1 L 1002.00670391 247.86 L 1005.22458101 246.24 L 1008.4424581 246.24 L 1011.6603352 243.0 L 1014.87821229 243.0 L 1018.09608939 243.0 L 1021.31396648 243.0 L 1024.53184358 244.62 L 1027.74972067 244.62 L 1030.96759777 246.24 L 1034.18547486 249.48 L 1037.40335196 249.48 L 1040.62122905 247.86 L 1043.83910615 249.48 L 1047.05698324 247.86 L 1050.27486034 244.62 L 1053.49273743 244.62 L 1056.71061453 246.24 L 1059.92849162 244.62 L 1063.14636872 244.62 L 1066.36424581 244.62 L 1069.58212291 244.62 L 1072.8 243.0 L 1076.01787709 244.62 L 1079.23575419 246.24 L 1082.45363128 246.24 L 1085.67150838 247.86 L 1088.88938547 249.48 L 1092.10726257 247.86 L 1095.32513966 246.24 L 1098.54301676 247.86 L 1101.76089385 247.86 L 1104.97877095 249.48 L 1108.19664804 249.48 L 1111.41452514 251.1 L 1114.63240223 251.1 L 1117.85027933 249.48 L 1121.06815642 246.24 L 1124.28603352 247.86 L 1127.50391061 247.86 L 1130.72178771 247.86 L 1133.9396648 251.1 L 1137.1575419 251.1 L 1140.37541899 249.48 L 1143.59329609 247.86 L 1146.81117318 246.24 L 1150.02905028 243.0 L 1153.24692737 244.62 L 1156.46480447 244.62 L 1159.68268156 244.62 L 1162.90055866 244.62 L 1166.11843575 244.62 L 1169.33631285 243.0 L 1172.55418994 243.0 L 1175.77206704 243.0 L 1178.98994413 243.0 L 1182.20782123 244.62 L 1185.42569832 244.62 L 1188.64357542 244.62 L 1191.86145251 244.62 L 1195.07932961 267.3 L 1198.2972067 298.08 L 1201.5150838 330.48 L 1204.73296089 362.88 L 1207.95083799 395.28 L 1211.16871508 405.0 L 1214.38659218 405.0 L 1217.60446927 405.0 L 1220.82234637 405.0 L 1224.04022346 405.0 L 1227.25810056 405.0 L 1230.47597765 405.0 L 1233.69385475 405.0 L 1236.91173184 405.0 L 1240.12960894 405.0 L 1243.34748603 405.0 L 1246.56536313 405.0 L 1249.78324022 405.0 L 1253.00111732 405.0 L 1256.21899441 405.0 L 1259.43687151 405.0 L 1262.6547486 405.0 L 1265.8726257 405.0 L 1269.09050279 405.0 L 1272.30837989 405.0 L 1275.52625698 405.0 L 1278.74413408 405.0 L 1281.96201117 405.0 L 1285.17988827 405.0 L 1288.39776536 405.0 L 1291.61564246 405.0 L 1294.83351955 405.0 L 1298.05139665 405.0 L 1301.26927374 405.0 L 1304.48715084 405.0 L 1307.70502793 405.0 L 1310.92290503 405.0 L 1314.14078212 405.0 L 1317.35865922 405.0 L 1320.57653631 405.0 L 1323.79441341 405.0 L 1327.0122905 405.0 L 1330.2301676 405.0 L 1333.44804469 405.0 L 1336.66592179 405.0 L 1339.88379888 405.0 L 1343.10167598 405.0 L 1346.31955307 405.0 L 1349.53743017 405.0 L 1352.75530726 405.0 L 1355.97318436 405.0 L 1359.19106145 405.0 L 1362.40893855 405.0 L 1365.62681564 405.0 L 1368.84469274 405.0 L 1372.06256983 405.0 L 1375.28044693 405.0 L 1378.49832402 405.0 L 1381.71620112 405.0 L 1384.93407821 405.0 L 1388.15195531 405.0 L 1391.3698324 405.0 L 1394.5877095 405.0 L 1397.80558659 405.0 L 1401.02346369 405.0 L 1404.24134078 405.0 L 1407.45921788 405.0 L 1410.67709497 405.0 L 1413.89497207 405.0 L 1417.11284916 405.0 L 1420.33072626 405.0 L 1423.54860335 405.0 L 1426.76648045 405.0 L 1429.98435754 405.0 L 1433.20223464 405.0 L 1436.42011173 405.0 L 1439.63798883 405.0 L 1442.85586592 405.0 L 1446.07374302 405.0 L 1449.29162011 405.0 L 1452.50949721 405.0 L 1455.7273743 405.0 L 1458.9452514 405.0 L 1462.16312849 405.0 L 1465.38100559 405.0 L 1468.59888268 405.0 L 1471.81675978 405.0 L 1475.51731844 315.9 L 1478.73519553 286.74 L 1481.95307263 255.96 L 1485.17094972 260.82 L 1488.38882682 265.68 L 1491.60670391 265.68 L 1494.82458101 264.06 L 1498.0424581 267.3 L 1501.2603352 260.82 L 1504.47821229 264.06 L 1507.69608939 260.82 L 1510.91396648 267.3 L 1514.13184358 264.06 L 1517.34972067 264.06 L 1520.56759777 255.96 L 1523.78547486 252.72 L 1527.00335196 244.62 L 1530.22122905 244.62 L 1533.43910615 259.2 L 1536.65698324 291.6 L 1539.87486034 324.0 L 1543.09273743 356.4 L 1546.31061453 387.18 L 1549.52849162 405.0 L 1552.74636872 405.0 L 1555.96424581 405.0 L 1559.18212291 405.0 L 1562.4 405.0 L 1565.61787709 405.0 L 1568.83575419 405.0 L 1572.05363128 405.0 L 1575.27150838 405.0 L 1578.48938547 405.0 L 1581.70726257 405.0 L 1584.92513966 405.0 L 1588.14301676 405.0 L 1591.36089385 405.0 L 1594.57877095 405.0 L 1597.79664804 405.0 L 1601.01452514 405.0 L 1604.23240223 405.0 L 1607.45027933 405.0 L 1610.66815642 405.0 L 1613.88603352 405.0 L 1617.10391061 405.0 L 1620.32178771 405.0 L 1623.5396648 405.0 L 1626.7575419 405.0" fill="none" stroke="rgb(50%,50%,50%)" stroke-linecap="round" stroke-width="2" /><path d="M 175.0 240.0 L 175.0 408.0" fill="none" fill-rule="evenodd" stroke="black" stroke-linecap="round" stroke-width="3" /><path d="M 175.0 408.0 L 155.0 408.0" fill="none" fill-rule="evenodd" stroke="black" stroke-linecap="round" stroke-width="3" /><text baseline-shift="-50%" fill="black" font-family="Nimbus Sans L" font-size="17.0pt" text-anchor="end" x="150.0" y="408.0">0 %</text><path d="M 175.0 374.4 L 155.0 374.4" fill="none" fill-rule="evenodd" stroke="black" stroke-linecap="round" stroke-width="3" /><text baseline-shift="-50%" fill="black" font-family="Nimbus Sans L" font-size="17.0pt" text-anchor="end" x="150.0" y="374.4">20 %</text><path d="M 175.0 340.8 L 155.0 340.8" fill="none" fill-rule="evenodd" stroke="black" stroke-linecap="round" stroke-width="3" /><text baseline-shift="-50%" fill="black" font-family="Nimbus Sans L" font-size="17.0pt" text-anchor="end" x="150.0" y="340.8">40 %</text><path d="M 175.0 307.2 L 155.0 307.2" fill="none" fill-rule="evenodd" stroke="black" stroke-linecap="round" stroke-width="3" /><text baseline-shift="-50%" fill="black" font-family="Nimbus Sans L" font-size="17.0pt" text-anchor="end" x="150.0" y="307.2">60 %</text><path d="M 175.0 273.6 L 155.0 273.6" fill="none" fill-rule="evenodd" stroke="black" stroke-linecap="round" stroke-width="3" /><text baseline-shift="-50%" fill="black" font-family="Nimbus Sans L" font-size="17.0pt" text-anchor="end" x="150.0" y="273.6">80 %</text><path d="M 175.0 240.0 L 155.0 240.0" fill="none" fill-rule="evenodd" stroke="black" stroke-linecap="round" stroke-width="3" /><text baseline-shift="-50%" fill="black" font-family="Nimbus Sans L" font-size="17.0pt" text-anchor="end" x="150.0" y="240.0">100 %</text><text fill="black" font-family="Nimbus Sans L" font-size="20pt" text-anchor="middle" transform="rotate(270 45.0,321.0)" x="45.0" y="321.0">Nucleotide Identity</text><text baseline-shift="-50%" fill="black" font-family="Nimbus Sans L" font-size="28.0pt" text-anchor="middle" x="22.5" y="169.8">A</text><path d="M 511.441340782 405.0 L 511.441340782 243.0 L 836.446927374 243.0 L 836.446927374 405.0 z" fill="rgb(2%,25%,100%)" fill-opacity="0.45" fill-rule="evenodd" stroke="none" stroke-linecap="round" stroke-width="3" /><path d="M 225.05027933 405.0 L 225.05027933 243.0 L 228.268156425 243.0 L 228.268156425 405.0 z" fill="rgb(100%,2%,36%)" fill-opacity="0.36" fill-rule="evenodd" stroke="none" stroke-linecap="round" stroke-width="3" /><path d="M 373.072625698 405.0 L 373.072625698 243.0 L 395.597765363 243.0 L 395.597765363 405.0 z" fill="rgb(100%,2%,36%)" fill-opacity="0.36" fill-rule="evenodd" stroke="none" stroke-linecap="round" stroke-width="3" /><path d="M 447.083798883 405.0 L 447.083798883 243.0 L 450.301675978 243.0 L 450.301675978 405.0 z" fill="rgb(100%,2%,36%)" fill-opacity="0.36" fill-rule="evenodd" stroke="none" stroke-linecap="round" stroke-width="3" /><path d="M 453.519553073 405.0 L 453.519553073 243.0 L 459.955307263 243.0 L 459.955307263 405.0 z" fill="rgb(100%,2%,36%)" fill-opacity="0.36" fill-rule="evenodd" stroke="none" stroke-linecap="round" stroke-width="3" /><path d="M 511.441340782 405.0 L 511.441340782 243.0 L 836.446927374 243.0 L 836.446927374 405.0 z" fill="rgb(100%,2%,36%)" fill-opacity="0.36" fill-rule="evenodd" stroke="none" stroke-linecap="round" stroke-width="3" /><path d="M 842.882681564 405.0 L 842.882681564 243.0 L 846.100558659 243.0 L 846.100558659 405.0 z" fill="rgb(100%,2%,36%)" fill-opacity="0.36" fill-rule="evenodd" stroke="none" stroke-linecap="round" stroke-width="3" /><path d="M 958.726256983 405.0 L 958.726256983 243.0 L 965.162011173 243.0 L 965.162011173 405.0 z" fill="rgb(100%,2%,36%)" fill-opacity="0.36" fill-rule="evenodd" stroke="none" stroke-linecap="round" stroke-width="3" /><path d="M 1003.77653631 405.0 L 1003.77653631 243.0 L 1032.73743017 243.0 L 1032.73743017 405.0 z" fill="rgb(100%,2%,36%)" fill-opacity="0.36" fill-rule="evenodd" stroke="none" stroke-linecap="round" stroke-width="3" /><path d="M 1048.82681564 405.0 L 1048.82681564 243.0 L 1084.22346369 243.0 L 1084.22346369 405.0 z" fill="rgb(100%,2%,36%)" fill-opacity="0.36" fill-rule="evenodd" stroke="none" stroke-linecap="round" stroke-width="3" /><path d="M 1093.87709497 405.0 L 1093.87709497 243.0 L 1097.09497207 243.0 L 1097.09497207 405.0 z" fill="rgb(100%,2%,36%)" fill-opacity="0.36" fill-rule="evenodd" stroke="none" stroke-linecap="round" stroke-width="3" /><path d="M 1119.62011173 405.0 L 1119.62011173 243.0 L 1122.83798883 243.0 L 1122.83798883 405.0 z" fill="rgb(100%,2%,36%)" fill-opacity="0.36" fill-rule="evenodd" stroke="none" stroke-linecap="round" stroke-width="3" /><path d="M 1145.36312849 405.0 L 1145.36312849 243.0 L 1193.63128492 243.0 L 1193.63128492 405.0 z" fill="rgb(100%,2%,36%)" fill-opacity="0.36" fill-rule="evenodd" stroke="none" stroke-linecap="round" stroke-width="3" /><path d="M 1525.0726257 405.0 L 1525.0726257 243.0 L 1531.50837989 243.0 L 1531.50837989 405.0 z" fill="rgb(100%,2%,36%)" fill-opacity="0.36" fill-rule="evenodd" stroke="none" stroke-linecap="round" stroke-width="3" /></svg>