<?xml version="1.0" encoding="utf-8" ?>
<svg baseProfile="full" height="100%" version="1.1" viewBox="0,0,1800,600" width="100%" xmlns="http://www.w3.org/2000/svg" xmlns:ev="http://www.w3.org/2001/xml-events" xmlns:xlink="http://www.w3.org/1999/xlink"><defs /><rect fill="rgb(100%,100%,100%)" height="600" width="1800" x="0" y="0" /><path d="M 180.0 492.0 L 180.0 512.0 z" fill="none" stroke="rgb(0%,0%,0%)" stroke-linecap="round" stroke-width="3" /><text fill="black" font-family="Nimbus Sans L" font-size="17.0pt" text-anchor="middle" x="180.0" y="534.0">2689 kb</text><path d="M 756.0 492.0 L 756.0 512.0 z" fill="none" stroke="rgb(0%,0%,0%)" stroke-linecap="round" stroke-width="3" /><text fill="black" font-family="Nimbus Sans L" font-size="17.0pt" text-anchor="middle" x="756.0" y="534.0">2690 kb</text><path d="M 1332.0 492.0 L 1332.0 512.0 z" fill="none" stroke="rgb(0%,0%,0%)" stroke-linecap="round" stroke-width="3" /><text fill="black" font-family="Nimbus Sans L" font-size="17.0pt" text-anchor="middle" x="1332.0" y="534.0">2691 kb</text><text fill="black" font-family="Nimbus Sans L" font-size="20pt" text-anchor="middle" x="900.0" y="576.0">Reference Chromosome Position</text><path d="M 180.0 458.4 L 1620.0 458.4" fill="none" stroke="rgb(70%,70%,70%)" stroke-linecap="round" stroke-width="5" /><path d="M 180.0 408.0 L 1620.0 408.0" fill="none" stroke="rgb(70%,70%,70%)" stroke-linecap="round" stroke-width="5" /><text baseline-shift="-50%" fill="black" font-family="Nimbus Sans L" font-size="15pt" text-anchor="end" x="160.0" y="408.0">Forward strand</text><text baseline-shift="-50%" fill="black" font-family="Nimbus Sans L" font-size="15pt" text-anchor="end" x="160.0" y="458.4">Reverse strand</text><path d="M 402.336 441.6 L 180.0 441.6 L 168.48 475.2 L 402.336 475.2 z" fill="rgb(0%,0%,0%)" stroke="white" stroke-linecap="round" stroke-width="1" /><text baseline-shift="-50%" fill="white" font-family="Nimbus Sans L" font-size="15pt" font-weight="bold" stroke="black" stroke-width="0.4" text-anchor="middle" x="291.168" y="458.4">PLES_RS12980</text><path d="M 851.04 441.6 L 477.216 441.6 L 465.696 458.4 L 477.216 475.2 L 851.04 475.2 z" fill="rgb(0%,0%,0%)" stroke="white" stroke-linecap="round" stroke-width="1" /><text baseline-shift="-50%" fill="white" font-family="Nimbus Sans L" font-size="15pt" font-weight="bold" stroke="black" stroke-width="0.4" text-anchor="middle" x="658.368" y="458.4">PLES_RS12985</text><path d="M 1631.52 441.6 L 1055.52 441.6 L 1044.0 458.4 L 1055.52 475.2 L 1620.0 475.2 z" fill="rgb(0%,0%,0%)" stroke="white" stroke-linecap="round" stroke-width="1" /><text baseline-shift="-50%" fill="white" font-family="Nimbus Sans L" font-size="15pt" font-weight="bold" stroke="black" stroke-width="0.4" text-anchor="middle" x="1332.0" y="458.4">PLES_RS12995</text><path d="M 180.0 357.6 L 1620.0 357.6" fill="none" stroke="rgb(70%,70%,70%)" stroke-linecap="round" stroke-width="5" /><text baseline-shift="-50%" fill="black" font-family="Nimbus Sans L" font-size="15pt" text-anchor="end" x="160.0" y="357.6">Large Features</text><path d="M 1014.624 374.4 L 1620.0 374.4 L 1631.52 340.8 L 1014.624 340.8 z" fill="rgb(20%,20%,20%)" stroke="white" stroke-linecap="round" stroke-width="1" /><text baseline-shift="-50%" fill="white" font-family="Nimbus Sans L" font-size="15pt" font-weight="bold" stroke="black" stroke-width="0.2" text-anchor="middle" x="1317.312" y="357.6">LES prophage 5</text><path d="M 180.0 297.0 L 180.0 211.581818182 L 185.76 213.054545455 L 191.52 189.490909091 L 197.28 192.436363636 L 203.04 185.072727273 L 208.8 176.236363636 L 214.56 162.981818182 L 220.32 143.836363636 L 226.08 160.036363636 L 231.84 161.509090909 L 237.6 154.145454545 L 243.36 165.927272727 L 249.12 158.563636364 L 254.88 157.090909091 L 260.64 158.563636364 L 266.4 152.672727273 L 272.16 157.090909091 L 277.92 165.927272727 L 283.68 179.181818182 L 289.44 170.345454545 L 295.2 185.072727273 L 300.96 189.490909091 L 306.72 190.963636364 L 312.48 195.381818182 L 318.24 205.690909091 L 324.0 210.109090909 L 329.76 205.690909091 L 335.52 198.327272727 L 341.28 199.8 L 347.04 198.327272727 L 352.8 193.909090909 L 358.56 199.8 L 364.32 205.690909091 L 370.08 213.054545455 L 375.84 211.581818182 L 381.6 201.272727273 L 387.36 207.163636364 L 393.12 211.581818182 L 398.88 211.581818182 L 404.64 205.690909091 L 410.4 205.690909091 L 416.16 211.581818182 L 421.92 207.163636364 L 427.68 216.0 L 433.44 221.890909091 L 439.2 238.090909091 L 444.96 226.309090909 L 450.72 230.727272727 L 456.48 218.945454545 L 462.24 216.0 L 468.0 204.218181818 L 473.76 199.8 L 479.52 196.854545455 L 485.28 189.490909091 L 491.04 167.4 L 496.8 161.509090909 L 502.56 171.818181818 L 508.32 170.345454545 L 514.08 186.545454545 L 519.84 167.4 L 525.6 171.818181818 L 531.36 168.872727273 L 537.12 157.090909091 L 542.88 162.981818182 L 548.64 170.345454545 L 554.4 170.345454545 L 560.16 180.654545455 L 565.92 188.018181818 L 571.68 189.490909091 L 577.44 183.6 L 583.2 180.654545455 L 588.96 179.181818182 L 594.72 185.072727273 L 600.48 190.963636364 L 606.24 193.909090909 L 612.0 199.8 L 617.76 202.745454545 L 623.52 199.8 L 629.28 205.690909091 L 635.04 208.636363636 L 640.8 218.945454545 L 646.56 218.945454545 L 652.32 226.309090909 L 658.08 229.254545455 L 663.84 221.890909091 L 669.6 224.836363636 L 675.36 223.363636364 L 681.12 229.254545455 L 686.88 227.781818182 L 692.64 236.618181818 L 698.4 229.254545455 L 704.16 224.836363636 L 709.92 230.727272727 L 715.68 233.672727273 L 721.44 226.309090909 L 727.2 226.309090909 L 732.96 224.836363636 L 738.72 214.527272727 L 744.48 226.309090909 L 750.24 217.472727273 L 756.0 214.527272727 L 761.76 210.109090909 L 767.52 204.218181818 L 773.28 207.163636364 L 779.04 201.272727273 L 784.8 195.381818182 L 790.56 202.745454545 L 796.32 207.163636364 L 802.08 202.745454545 L 807.84 196.854545455 L 813.6 211.581818182 L 819.36 205.690909091 L 825.12 201.272727273 L 830.88 188.018181818 L 836.64 190.963636364 L 842.4 196.854545455 L 848.16 188.018181818 L 853.92 171.818181818 L 859.68 179.181818182 L 865.44 190.963636364 L 871.2 189.490909091 L 876.96 189.490909091 L 882.72 183.6 L 888.48 180.654545455 L 894.24 179.181818182 L 900.0 179.181818182 L 905.76 179.181818182 L 911.52 192.436363636 L 917.28 188.018181818 L 923.04 188.018181818 L 928.8 199.8 L 934.56 210.109090909 L 940.32 227.781818182 L 946.08 230.727272727 L 951.84 248.4 L 957.6 295.527272727 L 963.36 297.0 L 969.12 297.0 L 974.88 297.0 L 980.64 297.0 L 986.4 297.0 L 992.16 297.0 L 997.92 297.0 L 1003.68 297.0 L 1009.44 297.0 L 1015.2 297.0 L 1020.96 297.0 L 1026.72 297.0 L 1032.48 297.0 L 1038.24 297.0 L 1044.0 297.0 L 1049.76 297.0 L 1055.52 297.0 L 1061.28 297.0 L 1067.04 297.0 L 1072.8 297.0 L 1078.56 297.0 L 1084.32 297.0 L 1090.08 297.0 L 1095.84 297.0 L 1101.6 297.0 L 1107.36 297.0 L 1113.12 297.0 L 1118.88 297.0 L 1124.64 297.0 L 1130.4 297.0 L 1136.16 297.0 L 1141.92 297.0 L 1147.68 297.0 L 1153.44 297.0 L 1159.2 297.0 L 1164.96 297.0 L 1170.72 297.0 L 1176.48 297.0 L 1182.24 297.0 L 1188.0 297.0 L 1193.76 297.0 L 1199.52 297.0 L 1205.28 297.0 L 1211.04 297.0 L 1216.8 297.0 L 1222.56 297.0 L 1228.32 297.0 L 1234.08 297.0 L 1239.84 297.0 L 1245.6 297.0 L 1251.36 297.0 L 1257.12 297.0 L 1262.88 297.0 L 1268.64 297.0 L 1274.4 297.0 L 1280.16 297.0 L 1285.92 297.0 L 1291.68 297.0 L 1297.44 297.0 L 1303.2 297.0 L 1308.96 297.0 L 1314.72 297.0 L 1320.48 297.0 L 1326.24 297.0 L 1332.0 297.0 L 1337.76 297.0 L 1343.52 297.0 L 1349.28 297.0 L 1355.04 297.0 L 1360.8 297.0 L 1366.56 297.0 L 1372.32 297.0 L 1378.08 297.0 L 1383.84 297.0 L 1389.6 297.0 L 1395.36 297.0 L 1401.12 297.0 L 1406.88 297.0 L 1412.64 297.0 L 1418.4 297.0 L 1424.16 297.0 L 1429.92 297.0 L 1435.68 297.0 L 1441.44 297.0 L 1447.2 297.0 L 1452.96 297.0 L 1458.72 297.0 L 1464.48 297.0 L 1470.24 297.0 L 1476.0 297.0 L 1481.76 297.0 L 1487.52 297.0 L 1493.28 297.0 L 1499.04 297.0 L 1504.8 297.0 L 1510.56 297.0 L 1516.32 297.0 L 1522.08 297.0 L 1527.84 297.0 L 1533.6 297.0 L 1539.36 297.0 L 1545.12 297.0 L 1550.88 297.0 L 1556.64 297.0 L 1562.4 297.0 L 1568.16 297.0 L 1573.92 297.0 L 1579.68 297.0 L 1585.44 297.0 L 1591.2 297.0 L 1596.96 297.0 L 1602.72 297.0 L 1608.48 297.0 L 1614.24 297.0 L 1614.24 297.0 z" fill="rgb(55%,55%,55%)" fill-rule="evenodd" stroke="rgb(55%,55%,55%)" stroke-linecap="round" stroke-width="0" /><path d="M 151.2 132.0 L 151.2 300.0" fill="none" fill-rule="evenodd" stroke="black" stroke-linecap="round" stroke-width="3" /><path d="M 151.2 300.0 L 131.2 300.0" fill="none" fill-rule="evenodd" stroke="black" stroke-linecap="round" stroke-width="3" /><text baseline-shift="-50%" fill="black" font-family="Nimbus Sans L" font-size="17.0pt" text-anchor="end" x="121.2" y="300.0">0</text><path d="M 151.2 266.4 L 131.2 266.4" fill="none" fill-rule="evenodd" stroke="black" stroke-linecap="round" stroke-width="3" /><text baseline-shift="-50%" fill="black" font-family="Nimbus Sans L" font-size="17.0pt" text-anchor="end" x="121.2" y="266.4">22</text><path d="M 151.2 232.8 L 131.2 232.8" fill="none" fill-rule="evenodd" stroke="black" stroke-linecap="round" stroke-width="3" /><text baseline-shift="-50%" fill="black" font-family="Nimbus Sans L" font-size="17.0pt" text-anchor="end" x="121.2" y="232.8">44</text><path d="M 151.2 199.2 L 131.2 199.2" fill="none" fill-rule="evenodd" stroke="black" stroke-linecap="round" stroke-width="3" /><text baseline-shift="-50%" fill="black" font-family="Nimbus Sans L" font-size="17.0pt" text-anchor="end" x="121.2" y="199.2">66</text><path d="M 151.2 165.6 L 131.2 165.6" fill="none" fill-rule="evenodd" stroke="black" stroke-linecap="round" stroke-width="3" /><text baseline-shift="-50%" fill="black" font-family="Nimbus Sans L" font-size="17.0pt" text-anchor="end" x="121.2" y="165.6">88</text><path d="M 151.2 132.0 L 131.2 132.0" fill="none" fill-rule="evenodd" stroke="black" stroke-linecap="round" stroke-width="3" /><text baseline-shift="-50%" fill="black" font-family="Nimbus Sans L" font-size="17.0pt" text-anchor="end" x="121.2" y="132.0">110</text><text fill="black" font-family="Nimbus Sans L" font-size="20pt" text-anchor="middle" transform="rotate(270,61.2,213.0)" x="61.2" y="213.0"><tspan>Aligned Reads</tspan></text><text baseline-shift="-50%" fill="black" font-family="Nimbus Sans L" font-size="20pt" text-anchor="middle" x="180.0" y="78.6">ERR953478</text><path d="M 180.0 297.0 L 180.0 213.054545455 L 185.76 214.527272727 L 191.52 190.963636364 L 197.28 193.909090909 L 203.04 186.545454545 L 208.8 177.709090909 L 214.56 165.927272727 L 220.32 146.781818182 L 226.08 162.981818182 L 231.84 164.454545455 L 237.6 157.090909091 L 243.36 167.4 L 249.12 160.036363636 L 254.88 158.563636364 L 260.64 160.036363636 L 266.4 154.145454545 L 272.16 157.090909091 L 277.92 165.927272727 L 283.68 179.181818182 L 289.44 170.345454545 L 295.2 185.072727273 L 300.96 189.490909091 L 306.72 190.963636364 L 312.48 195.381818182 L 318.24 205.690909091 L 324.0 210.109090909 L 329.76 205.690909091 L 335.52 198.327272727 L 341.28 199.8 L 347.04 198.327272727 L 352.8 193.909090909 L 358.56 199.8 L 364.32 205.690909091 L 370.08 213.054545455 L 375.84 211.581818182 L 381.6 201.272727273 L 387.36 207.163636364 L 393.12 211.581818182 L 398.88 211.581818182 L 404.64 205.690909091 L 410.4 205.690909091 L 416.16 211.581818182 L 421.92 207.163636364 L 427.68 216.0 L 433.44 221.890909091 L 439.2 238.090909091 L 444.96 226.309090909 L 450.72 230.727272727 L 456.48 220.418181818 L 462.24 217.472727273 L 468.0 205.690909091 L 473.76 201.272727273 L 479.52 198.327272727 L 485.28 192.436363636 L 491.04 170.345454545 L 496.8 165.927272727 L 502.56 176.236363636 L 508.32 174.763636364 L 514.08 190.963636364 L 519.84 171.818181818 L 525.6 176.236363636 L 531.36 173.290909091 L 537.12 162.981818182 L 542.88 167.4 L 548.64 173.290909091 L 554.4 173.290909091 L 560.16 183.6 L 565.92 189.490909091 L 571.68 190.963636364 L 577.44 185.072727273 L 583.2 182.127272727 L 588.96 179.181818182 L 594.72 185.072727273 L 600.48 190.963636364 L 606.24 193.909090909 L 612.0 199.8 L 617.76 202.745454545 L 623.52 201.272727273 L 629.28 207.163636364 L 635.04 210.109090909 L 640.8 220.418181818 L 646.56 220.418181818 L 652.32 227.781818182 L 658.08 230.727272727 L 663.84 223.363636364 L 669.6 226.309090909 L 675.36 224.836363636 L 681.12 229.254545455 L 686.88 230.727272727 L 692.64 239.563636364 L 698.4 232.2 L 704.16 232.2 L 709.92 238.090909091 L 715.68 241.036363636 L 721.44 233.672727273 L 727.2 235.145454545 L 732.96 236.618181818 L 738.72 229.254545455 L 744.48 241.036363636 L 750.24 232.2 L 756.0 227.781818182 L 761.76 224.836363636 L 767.52 223.363636364 L 773.28 227.781818182 L 779.04 223.363636364 L 784.8 218.945454545 L 790.56 221.890909091 L 796.32 229.254545455 L 802.08 227.781818182 L 807.84 227.781818182 L 813.6 242.509090909 L 819.36 239.563636364 L 825.12 239.563636364 L 830.88 232.2 L 836.64 235.145454545 L 842.4 243.981818182 L 848.16 239.563636364 L 853.92 239.563636364 L 859.68 245.454545455 L 865.44 251.345454545 L 871.2 255.763636364 L 876.96 254.290909091 L 882.72 246.927272727 L 888.48 246.927272727 L 894.24 245.454545455 L 900.0 242.509090909 L 905.76 246.927272727 L 911.52 246.927272727 L 917.28 252.818181818 L 923.04 251.345454545 L 928.8 254.290909091 L 934.56 263.127272727 L 940.32 276.381818182 L 946.08 276.381818182 L 951.84 285.218181818 L 957.6 295.527272727 L 963.36 297.0 L 969.12 297.0 L 974.88 297.0 L 980.64 297.0 L 986.4 297.0 L 992.16 297.0 L 997.92 297.0 L 1003.68 297.0 L 1009.44 297.0 L 1015.2 297.0 L 1020.96 297.0 L 1026.72 297.0 L 1032.48 297.0 L 1038.24 297.0 L 1044.0 297.0 L 1049.76 297.0 L 1055.52 297.0 L 1061.28 297.0 L 1067.04 297.0 L 1072.8 297.0 L 1078.56 297.0 L 1084.32 297.0 L 1090.08 297.0 L 1095.84 297.0 L 1101.6 297.0 L 1107.36 297.0 L 1113.12 297.0 L 1118.88 297.0 L 1124.64 297.0 L 1130.4 297.0 L 1136.16 297.0 L 1141.92 297.0 L 1147.68 297.0 L 1153.44 297.0 L 1159.2 297.0 L 1164.96 297.0 L 1170.72 297.0 L 1176.48 297.0 L 1182.24 297.0 L 1188.0 297.0 L 1193.76 297.0 L 1199.52 297.0 L 1205.28 297.0 L 1211.04 297.0 L 1216.8 297.0 L 1222.56 297.0 L 1228.32 297.0 L 1234.08 297.0 L 1239.84 297.0 L 1245.6 297.0 L 1251.36 297.0 L 1257.12 297.0 L 1262.88 297.0 L 1268.64 297.0 L 1274.4 297.0 L 1280.16 297.0 L 1285.92 297.0 L 1291.68 297.0 L 1297.44 297.0 L 1303.2 297.0 L 1308.96 297.0 L 1314.72 297.0 L 1320.48 297.0 L 1326.24 297.0 L 1332.0 297.0 L 1337.76 297.0 L 1343.52 297.0 L 1349.28 297.0 L 1355.04 297.0 L 1360.8 297.0 L 1366.56 297.0 L 1372.32 297.0 L 1378.08 297.0 L 1383.84 297.0 L 1389.6 297.0 L 1395.36 297.0 L 1401.12 297.0 L 1406.88 297.0 L 1412.64 297.0 L 1418.4 297.0 L 1424.16 297.0 L 1429.92 297.0 L 1435.68 297.0 L 1441.44 297.0 L 1447.2 297.0 L 1452.96 297.0 L 1458.72 297.0 L 1464.48 297.0 L 1470.24 297.0 L 1476.0 297.0 L 1481.76 297.0 L 1487.52 297.0 L 1493.28 297.0 L 1499.04 297.0 L 1504.8 297.0 L 1510.56 297.0 L 1516.32 297.0 L 1522.08 297.0 L 1527.84 297.0 L 1533.6 297.0 L 1539.36 297.0 L 1545.12 297.0 L 1550.88 297.0 L 1556.64 297.0 L 1562.4 297.0 L 1568.16 297.0 L 1573.92 297.0 L 1579.68 297.0 L 1585.44 297.0 L 1591.2 297.0 L 1596.96 297.0 L 1602.72 297.0 L 1608.48 297.0 L 1614.24 297.0 L 1614.24 297.0 z" fill="rgb(75%,75%,75%)" fill-rule="evenodd" stroke="rgb(75%,75%,75%)" stroke-linecap="round" stroke-width="0" /><path d="M 180.0 292.263157859 L 180.0 292.263157859 L 185.76 292.178571213 L 191.52 293.249999972 L 197.28 293.142857121 L 203.04 293.399999913 L 208.8 293.666666642 L 214.56 290.932584208 L 220.32 291.705882166 L 226.08 291.065933917 L 231.84 290.999999855 L 237.6 291.31578923 L 243.36 293.93181809 L 249.12 294.096774196 L 254.88 294.127659665 L 260.64 294.096774196 L 266.4 294.216494931 L 272.16 297.0 L 277.92 297.0 L 283.68 297.0 L 289.44 297.0 L 295.2 297.0 L 300.96 297.0 L 306.72 297.0 L 312.48 297.0 L 318.24 297.0 L 324.0 297.0 L 329.76 297.0 L 335.52 297.0 L 341.28 297.0 L 347.04 297.0 L 352.8 297.0 L 358.56 297.0 L 364.32 297.0 L 370.08 297.0 L 375.84 297.0 L 381.6 297.0 L 387.36 297.0 L 393.12 297.0 L 398.88 297.0 L 404.64 297.0 L 410.4 297.0 L 416.16 297.0 L 421.92 297.0 L 427.68 297.0 L 433.44 297.0 L 439.2 297.0 L 444.96 297.0 L 450.72 297.0 L 456.48 291.807692114 L 462.24 291.999999963 L 468.0 292.64516142 L 473.76 292.846153842 L 479.52 292.970149348 L 485.28 289.394366339 L 491.04 290.720930256 L 496.8 287.898876563 L 502.56 287.121951587 L 508.32 287.240964219 L 514.08 285.749999665 L 519.84 287.470587797 L 525.6 287.121951587 L 531.36 287.357142426 L 537.12 285.131867833 L 542.88 287.795454271 L 548.64 290.571428452 L 554.4 290.571428452 L 560.16 289.987012994 L 565.92 293.301369891 L 571.68 293.249999972 L 577.44 293.447368395 L 583.2 293.538461493 L 588.96 297.0 L 594.72 297.0 L 600.48 297.0 L 606.24 297.0 L 612.0 297.0 L 617.76 297.0 L 623.52 292.846153842 L 629.28 292.573770739 L 635.04 292.423728805 L 640.8 291.807692114 L 646.56 291.807692114 L 652.32 291.255319331 L 658.08 290.999999855 L 663.84 291.600000121 L 669.6 291.374999832 L 675.36 291.489796031 L 681.12 297.0 L 686.88 284.999999709 L 692.64 283.153845973 L 698.4 284.727272362 L 704.16 266.318180904 L 709.92 263.25 L 715.68 261.47368294 L 721.44 265.604650274 L 727.2 258.428569704 L 732.96 244.317075133 L 738.72 238.30434975 L 744.48 225.94736588 L 750.24 235.636361808 L 756.0 245.297870457 L 761.76 241.897957295 L 767.52 226.800002575 L 773.28 216.574469626 L 779.04 215.999996781 L 784.8 215.490564823 L 790.56 228.176466644 L 796.32 208.95651859 L 802.08 199.340429127 L 807.84 176.361700416 L 813.6 143.756751537 L 819.36 137.769224167 L 825.12 135.0 L 830.88 135.0 L 836.64 135.0 L 842.4 135.0 L 848.16 135.0 L 853.92 135.0 L 859.68 135.0 L 865.44 135.0 L 871.2 135.0 L 876.96 135.0 L 882.72 135.0 L 888.48 135.0 L 894.24 135.0 L 900.0 135.0 L 905.76 135.0 L 911.52 135.0 L 917.28 135.0 L 923.04 135.0 L 928.8 135.0 L 934.56 135.0 L 940.32 135.0 L 946.08 135.0 L 951.84 135.0 L 957.6 297.0 L 963.36 297.0 L 969.12 297.0 L 974.88 297.0 L 980.64 297.0 L 986.4 297.0 L 992.16 297.0 L 997.92 297.0 L 1003.68 297.0 L 1009.44 297.0 L 1015.2 297.0 L 1020.96 297.0 L 1026.72 297.0 L 1032.48 297.0 L 1038.24 297.0 L 1044.0 297.0 L 1049.76 297.0 L 1055.52 297.0 L 1061.28 297.0 L 1067.04 297.0 L 1072.8 297.0 L 1078.56 297.0 L 1084.32 297.0 L 1090.08 297.0 L 1095.84 297.0 L 1101.6 297.0 L 1107.36 297.0 L 1113.12 297.0 L 1118.88 297.0 L 1124.64 297.0 L 1130.4 297.0 L 1136.16 297.0 L 1141.92 297.0 L 1147.68 297.0 L 1153.44 297.0 L 1159.2 297.0 L 1164.96 297.0 L 1170.72 297.0 L 1176.48 297.0 L 1182.24 297.0 L 1188.0 297.0 L 1193.76 297.0 L 1199.52 297.0 L 1205.28 297.0 L 1211.04 297.0 L 1216.8 297.0 L 1222.56 297.0 L 1228.32 297.0 L 1234.08 297.0 L 1239.84 297.0 L 1245.6 297.0 L 1251.36 297.0 L 1257.12 297.0 L 1262.88 297.0 L 1268.64 297.0 L 1274.4 297.0 L 1280.16 297.0 L 1285.92 297.0 L 1291.68 297.0 L 1297.44 297.0 L 1303.2 297.0 L 1308.96 297.0 L 1314.72 297.0 L 1320.48 297.0 L 1326.24 297.0 L 1332.0 297.0 L 1337.76 297.0 L 1343.52 297.0 L 1349.28 297.0 L 1355.04 297.0 L 1360.8 297.0 L 1366.56 297.0 L 1372.32 297.0 L 1378.08 297.0 L 1383.84 297.0 L 1389.6 297.0 L 1395.36 297.0 L 1401.12 297.0 L 1406.88 297.0 L 1412.64 297.0 L 1418.4 297.0 L 1424.16 297.0 L 1429.92 297.0 L 1435.68 297.0 L 1441.44 297.0 L 1447.2 297.0 L 1452.96 297.0 L 1458.72 297.0 L 1464.48 297.0 L 1470.24 297.0 L 1476.0 297.0 L 1481.76 297.0 L 1487.52 297.0 L 1493.28 297.0 L 1499.04 297.0 L 1504.8 297.0 L 1510.56 297.0 L 1516.32 297.0 L 1522.08 297.0 L 1527.84 297.0 L 1533.6 297.0 L 1539.36 297.0 L 1545.12 297.0 L 1550.88 297.0 L 1556.64 297.0 L 1562.4 297.0 L 1568.16 297.0 L 1573.92 297.0 L 1579.68 297.0 L 1585.44 297.0 L 1591.2 297.0 L 1596.96 297.0 L 1602.72 297.0 L 1608.48 297.0 L 1614.24 297.0" fill="none" fill-rule="evenodd" stroke="rgb(0%,100%,0%)" stroke-linecap="round" stroke-width="3" /><path d="M 1648.8 132.0 L 1648.8 300.0" fill="none" fill-rule="evenodd" stroke="black" stroke-linecap="round" stroke-width="3" /><path d="M 1648.8 300.0 L 1668.8 300.0" fill="none" fill-rule="evenodd" stroke="black" stroke-linecap="round" stroke-width="3" /><text baseline-shift="-50%" fill="black" font-family="Nimbus Sans L" font-size="17.0pt" text-anchor="start" x="1678.8" y="300.0">0.0</text><path d="M 1648.8 266.4 L 1668.8 266.4" fill="none" fill-rule="evenodd" stroke="black" stroke-linecap="round" stroke-width="3" /><text baseline-shift="-50%" fill="black" font-family="Nimbus Sans L" font-size="17.0pt" text-anchor="start" x="1678.8" y="266.4">0.12</text><path d="M 1648.8 232.8 L 1668.8 232.8" fill="none" fill-rule="evenodd" stroke="black" stroke-linecap="round" stroke-width="3" /><text baseline-shift="-50%" fill="black" font-family="Nimbus Sans L" font-size="17.0pt" text-anchor="start" x="1678.8" y="232.8">0.24</text><path d="M 1648.8 199.2 L 1668.8 199.2" fill="none" fill-rule="evenodd" stroke="black" stroke-linecap="round" stroke-width="3" /><text baseline-shift="-50%" fill="black" font-family="Nimbus Sans L" font-size="17.0pt" text-anchor="start" x="1678.8" y="199.2">0.36</text><path d="M 1648.8 165.6 L 1668.8 165.6" fill="none" fill-rule="evenodd" stroke="black" stroke-linecap="round" stroke-width="3" /><text baseline-shift="-50%" fill="black" font-family="Nimbus Sans L" font-size="17.0pt" text-anchor="start" x="1678.8" y="165.6">0.48</text><path d="M 1648.8 132.0 L 1668.8 132.0" fill="none" fill-rule="evenodd" stroke="black" stroke-linecap="round" stroke-width="3" /><text baseline-shift="-50%" fill="black" font-family="Nimbus Sans L" font-size="17.0pt" text-anchor="start" x="1678.8" y="132.0">0.6</text><text fill="black" font-family="Nimbus Sans L" font-size="20pt" text-anchor="middle" transform="rotate(90,1738.8,213.0)" x="1738.8" y="213.0"><tspan dy="-24.0pt" x="1738.8">Non-Proper Pair :</tspan><tspan dy="24.0pt" x="1738.8">Proper Pair Reads</tspan></text><path d="M 181.152 293.584103974 L 181.152 293.584103974 L 186.912 293.74481825 L 192.672 293.840157202 L 198.432 293.935496153 L 204.192 294.030835105 L 209.952 294.030835105 L 215.712 294.030835105 L 221.472 294.030835105 L 227.232 294.113555688 L 232.992 294.186607746 L 238.752 294.268129382 L 244.512 294.353356741 L 250.272 294.430411493 L 256.032 294.506424962 L 261.792 294.587946597 L 267.552 294.677232474 L 273.312 294.75875411 L 279.072 294.915004143 L 284.832 295.002894809 L 290.592 295.109026928 L 296.352 295.201240017 L 302.112 295.298222744 L 307.872 295.402389474 L 313.632 295.497728426 L 319.392 295.59147842 L 325.152 295.581989561 L 330.912 295.578269253 L 336.672 295.565668487 L 342.432 295.559487169 L 348.192 295.550531901 L 353.952 295.461525645 L 359.712 295.457116219 L 365.472 295.377803634 L 371.232 295.295637388 L 376.992 295.217324093 L 382.752 295.101370186 L 388.512 294.966761179 L 394.272 294.821452422 L 400.032 294.680399828 L 405.792 294.493631076 L 411.552 294.359859422 L 417.312 294.225930858 L 423.072 294.092002295 L 428.832 293.94589843 L 434.592 293.868843427 L 440.352 293.790718473 L 446.112 293.716705346 L 451.872 293.644589966 L 457.632 293.644589966 L 463.392 293.644589966 L 469.152 293.644589966 L 474.912 293.644589966 L 480.672 293.644589966 L 486.432 293.644589966 L 492.192 293.55805151 L 497.952 293.465838421 L 503.712 293.370499469 L 509.472 293.262326399 L 515.232 293.154153328 L 520.992 293.034472324 L 526.752 292.909472499 L 532.512 292.796972355 L 538.272 292.67978505 L 544.032 292.564988852 L 549.792 292.564988852 L 555.552 292.314989202 L 561.312 292.02652768 L 567.072 291.770845603 L 572.832 291.131641164 L 578.592 290.428515829 L 584.352 289.688384559 L 590.112 289.03431448 L 595.872 288.230743602 L 601.632 287.241355486 L 607.392 286.122696295 L 613.152 284.733158469 L 618.912 283.541288048 L 624.672 282.548115 L 630.432 281.558607191 L 636.192 280.22692059 L 641.952 278.740996242 L 647.712 277.259288326 L 653.472 275.764488548 L 659.232 274.565040216 L 664.992 272.929329917 L 670.752 271.100548849 L 676.512 268.788143367 L 682.272 265.842828423 L 688.032 262.717281103 L 693.792 259.101211399 L 699.552 255.399911821 L 705.312 251.528156519 L 711.072 246.605214 L 716.832 241.635259062 L 722.592 235.07465896 L 728.352 227.9146294 L 734.112 220.475112319 L 739.872 211.434936047 L 745.632 202.900450051 L 751.392 195.786483407 L 757.152 188.341631413 L 762.912 181.109483957 L 768.672 174.658865154 L 774.432 167.140780807 L 780.192 161.114806652 L 785.952 152.972971916 L 791.712 145.278722763 L 797.472 138.221686006 L 803.232 135.0 L 808.992 135.0 L 814.752 135.0 L 820.512 135.0 L 826.272 135.0 L 832.032 135.0 L 837.792 135.0 L 843.552 135.0 L 849.312 135.0 L 855.072 135.0 L 860.832 135.0 L 866.592 135.0 L 872.352 135.0 L 878.112 135.0 L 883.872 135.0 L 889.632 135.0 L 895.392 135.0 L 901.152 135.0 L 906.912 135.0 L 912.672 135.0 L 918.432 135.0 L 924.192 135.0 L 929.952 135.0 L 935.712 135.0 L 941.472 135.0 L 947.232 135.0 L 952.992 135.0 L 958.752 135.0 L 964.512 135.0 L 970.272 135.0 L 976.032 135.0 L 981.792 135.0 L 987.552 135.0 L 993.312 135.0 L 999.072 135.0 L 1004.832 135.0 L 1010.592 135.0 L 1016.352 135.0 L 1022.112 135.0 L 1027.872 135.0 L 1033.632 135.0 L 1039.392 135.0 L 1045.152 135.0 L 1050.912 135.0 L 1056.672 146.348199964 L 1062.432 162.848194957 L 1068.192 178.453034878 L 1073.952 192.806479454 L 1079.712 210.415178955 L 1085.472 236.933035523 L 1091.232 261.843751341 L 1096.992 297.0 L 1102.752 297.0 L 1108.512 297.0 L 1114.272 297.0 L 1120.032 297.0 L 1125.792 297.0 L 1131.552 297.0 L 1137.312 297.0 L 1143.072 297.0 L 1148.832 297.0 L 1154.592 297.0 L 1160.352 297.0 L 1166.112 297.0 L 1171.872 297.0 L 1177.632 297.0 L 1183.392 297.0 L 1189.152 297.0 L 1194.912 297.0 L 1200.672 297.0 L 1206.432 297.0 L 1212.192 297.0 L 1217.952 297.0 L 1223.712 297.0 L 1229.472 297.0 L 1235.232 297.0 L 1240.992 297.0 L 1246.752 297.0 L 1252.512 297.0 L 1258.272 297.0 L 1264.032 297.0 L 1269.792 297.0 L 1275.552 297.0 L 1281.312 297.0 L 1287.072 297.0 L 1292.832 297.0 L 1298.592 297.0 L 1304.352 297.0 L 1310.112 297.0 L 1315.872 297.0 L 1321.632 297.0 L 1327.392 297.0 L 1333.152 297.0 L 1338.912 297.0 L 1344.672 297.0 L 1350.432 297.0 L 1356.192 297.0 L 1361.952 297.0 L 1367.712 297.0 L 1373.472 297.0 L 1379.232 297.0 L 1384.992 297.0 L 1390.752 297.0 L 1396.512 297.0 L 1402.272 297.0 L 1408.032 297.0 L 1413.792 297.0 L 1419.552 297.0 L 1425.312 297.0 L 1431.072 297.0 L 1436.832 297.0 L 1442.592 297.0 L 1448.352 297.0 L 1454.112 297.0 L 1459.872 297.0 L 1465.632 297.0 L 1471.392 297.0 L 1477.152 297.0 L 1482.912 297.0 L 1488.672 297.0 L 1494.432 297.0 L 1500.192 297.0 L 1505.952 297.0 L 1511.712 297.0 L 1517.472 297.0 L 1523.232 297.0 L 1528.992 297.0 L 1534.752 297.0 L 1540.512 297.0 L 1546.272 297.0 L 1552.032 297.0 L 1557.792 297.0 L 1563.552 297.0 L 1569.312 297.0 L 1575.072 297.0 L 1580.832 297.0 L 1586.592 297.0 L 1592.352 297.0 L 1598.112 297.0 L 1603.872 297.0 L 1609.632 297.0 L 1615.392 297.0" fill="none" fill-rule="evenodd" stroke="rgb(0%,80%,70%)" stroke-linecap="round" stroke-width="3" /><path d="M 180.0 283.678590328 L 1620.0 283.678590328" fill="rgb(80%,10%,10%)" fill-rule="evenodd" stroke="rgb(80%,10%,10%)" stroke-linecap="round" stroke-opacity="0.5" stroke-width="3" /><path d="M 636.192 297.0 L 636.192 135.0 L 1096.992 135.0 L 1096.992 297.0 z" fill="rgb(80%,10%,0%)" fill-opacity="0.2" fill-rule="evenodd" stroke="rgb(80%,10%,0%)" stroke-linecap="round" stroke-width="3" /><path d="M 1096.992 297.0 L 1096.992 135.0 L 1620.0 135.0 L 1620.0 297.0 z" fill="rgb(90%,60%,0%)" fill-opacity="0.2" fill-rule="evenodd" stroke="rgb(90%,60%,0%)" stroke-linecap="round" stroke-width="3" /></svg>