<?xml version="1.0" encoding="utf-8" ?>
<svg baseProfile="full" height="100%" version="1.1" viewBox="0,0,1800,1800" width="100%" xmlns="http://www.w3.org/2000/svg" xmlns:ev="http://www.w3.org/2001/xml-events" xmlns:xlink="http://www.w3.org/1999/xlink"><defs /><rect fill="rgb(100%,100%,100%)" height="1800" width="1800" x="0" y="0" /><g id="phylogeny" transform="rotate(90,900.0,900.0)"><text fill="black" font-family="sans-serif" font-size="15pt" text-anchor="start" transform="rotate(-90,225.0,1415.01698458)" x="225.0" y="1415.01698458"><tspan baseline-shift="-30%">LESB58 (NC 011770.)</tspan></text><line stroke="rgb(10%,10%,16%)" stroke-width="3pt" style="stroke-linecap:butt" x1="225.0" x2="225.0" y1="1575.0" y2="1430.01698458" /><text fill="black" font-family="sans-serif" font-size="15pt" text-anchor="start" transform="rotate(-90,309.375,1299.31277763)" x="309.375" y="1299.31277763"><tspan baseline-shift="-30%">CF01 i01 (ERR953517)</tspan></text><line stroke="rgb(10%,10%,16%)" stroke-width="3pt" style="stroke-linecap:butt" x1="309.375" x2="309.375" y1="1494.21870917" y2="1314.31277763" /><text fill="black" font-family="sans-serif" font-size="15pt" text-anchor="start" transform="rotate(-90,393.75,1293.66866998)" x="393.75" y="1293.66866998"><tspan baseline-shift="-30%">CF01 i02 (ERR953518)</tspan></text><line stroke="rgb(10%,10%,16%)" stroke-width="3pt" style="stroke-linecap:butt" x1="393.75" x2="393.75" y1="1445.18552391" y2="1308.66866998" /><text fill="black" font-family="sans-serif" font-size="15pt" text-anchor="start" transform="rotate(-90,478.125,1316.2451006)" x="478.125" y="1316.2451006"><tspan baseline-shift="-30%">CF04 i02 (ERR953520)</tspan></text><line stroke="rgb(10%,10%,16%)" stroke-width="3pt" style="stroke-linecap:butt" x1="478.125" x2="478.125" y1="1423.66736347" y2="1331.2451006" /><text fill="black" font-family="sans-serif" font-size="15pt" text-anchor="start" transform="rotate(-90,562.5,1310.60099294)" x="562.5" y="1310.60099294"><tspan baseline-shift="-30%">CF04 i01 (ERR953519)</tspan></text><line stroke="rgb(10%,10%,16%)" stroke-width="3pt" style="stroke-linecap:butt" x1="562.5" x2="562.5" y1="1423.66736347" y2="1325.60099294" /><text fill="black" font-family="sans-serif" font-size="15pt" text-anchor="start" transform="rotate(-90,646.875,1274.26704991)" x="646.875" y="1274.26704991"><tspan baseline-shift="-30%">CF06 i01 (ERR953523)</tspan></text><line stroke="rgb(10%,10%,16%)" stroke-width="3pt" style="stroke-linecap:butt" x1="646.875" x2="646.875" y1="1344.29709956" y2="1289.26704991" /><text fill="black" font-family="sans-serif" font-size="15pt" text-anchor="start" transform="rotate(-90,731.25,1246.04651163)" x="731.25" y="1246.04651163"><tspan baseline-shift="-30%">CF06 i02 (ERR953524)</tspan></text><line stroke="rgb(10%,10%,16%)" stroke-width="3pt" style="stroke-linecap:butt" x1="731.25" x2="731.25" y1="1344.29709956" y2="1261.04651163" /><text fill="black" font-family="sans-serif" font-size="15pt" text-anchor="start" transform="rotate(-90,815.625,1208.65429841)" x="815.625" y="1208.65429841"><tspan baseline-shift="-30%">CF07 i01 (ERR953525)</tspan></text><line stroke="rgb(10%,10%,16%)" stroke-width="3pt" style="stroke-linecap:butt" x1="815.625" x2="815.625" y1="1494.92422263" y2="1223.65429841" /><text fill="black" font-family="sans-serif" font-size="15pt" text-anchor="start" transform="rotate(-90,900.0,1054.14685132)" x="900.0" y="1054.14685132"><tspan baseline-shift="-30%">CF03 i05 (ERR953481)</tspan></text><line stroke="rgb(10%,10%,16%)" stroke-width="3pt" style="stroke-linecap:butt" x1="900.0" x2="900.0" y1="1183.79278808" y2="1069.14685132" /><text fill="black" font-family="sans-serif" font-size="15pt" text-anchor="start" transform="rotate(-90,984.375,1043.56414946)" x="984.375" y="1043.56414946"><tspan baseline-shift="-30%">CF03 i16 (ERR953492)</tspan></text><line stroke="rgb(10%,10%,16%)" stroke-width="3pt" style="stroke-linecap:butt" x1="984.375" x2="984.375" y1="1183.79278808" y2="1058.56414946" /><text fill="black" font-family="sans-serif" font-size="15pt" text-anchor="start" transform="rotate(-90,1068.75,1126.10922394)" x="1068.75" y="1126.10922394"><tspan baseline-shift="-30%">CF07 i02 (ERR953526)</tspan></text><line stroke="rgb(10%,10%,16%)" stroke-width="3pt" style="stroke-linecap:butt" x1="1068.75" x2="1068.75" y1="1463.88163052" y2="1141.10922394" /><text fill="black" font-family="sans-serif" font-size="15pt" text-anchor="start" transform="rotate(-90,1153.125,210.0)" x="1153.125" y="210.0"><tspan baseline-shift="-30%">CF05 i02 (ERR953522)</tspan></text><line stroke="rgb(10%,10%,16%)" stroke-width="3pt" style="stroke-linecap:butt" x1="1153.125" x2="1153.125" y1="1463.88163052" y2="225.0" /><text fill="black" font-family="sans-serif" font-size="15pt" text-anchor="start" transform="rotate(-90,1237.5,1192.07473217)" x="1237.5" y="1192.07473217"><tspan baseline-shift="-30%">CF03 i11 (ERR953487)</tspan></text><line stroke="rgb(10%,10%,16%)" stroke-width="3pt" style="stroke-linecap:butt" x1="1237.5" x2="1237.5" y1="1240.23386465" y2="1207.07473217" /><text fill="black" font-family="sans-serif" font-size="15pt" text-anchor="start" transform="rotate(-90,1321.875,1111.29344134)" x="1321.875" y="1111.29344134"><tspan baseline-shift="-30%">CF03 i35 (ERR953511)</tspan></text><line stroke="rgb(10%,10%,16%)" stroke-width="3pt" style="stroke-linecap:butt" x1="1321.875" x2="1321.875" y1="1240.23386465" y2="1126.29344134" /><text fill="black" font-family="sans-serif" font-size="15pt" text-anchor="start" transform="rotate(-90,1406.25,1137.04468252)" x="1406.25" y="1137.04468252"><tspan baseline-shift="-30%">CF05 i01 (ERR953521)</tspan></text><line stroke="rgb(10%,10%,16%)" stroke-width="3pt" style="stroke-linecap:butt" x1="1406.25" x2="1406.25" y1="1442.01071335" y2="1152.04468252" /><text fill="black" font-family="sans-serif" font-size="15pt" text-anchor="start" transform="rotate(-90,1490.625,1165.61797753)" x="1490.625" y="1165.61797753"><tspan baseline-shift="-30%">CF08 i01 (ERR953527)</tspan></text><line stroke="rgb(10%,10%,16%)" stroke-width="3pt" style="stroke-linecap:butt" x1="1490.625" x2="1490.625" y1="1281.50640188" y2="1180.61797753" /><text fill="black" font-family="sans-serif" font-size="15pt" text-anchor="start" transform="rotate(-90,1575.0,1226.64489156)" x="1575.0" y="1226.64489156"><tspan baseline-shift="-30%">CF08 i02 (ERR953528)</tspan></text><line stroke="rgb(10%,10%,16%)" stroke-width="3pt" style="stroke-linecap:butt" x1="1575.0" x2="1575.0" y1="1281.50640188" y2="1241.64489156" /><line stroke="rgb(10%,10%,16%)" stroke-width="3pt" style="stroke-linecap:round" x1="1532.8125" x2="1532.8125" y1="1442.01071335" y2="1281.50640188" /><line stroke="rgb(10%,10%,16%)" stroke-width="3pt" style="stroke-linecap:round" x1="1279.6875" x2="1279.6875" y1="1457.88476614" y2="1240.23386465" /><line stroke="rgb(10%,10%,16%)" stroke-width="3pt" style="stroke-linecap:round" x1="1469.53125" x2="1469.53125" y1="1457.88476614" y2="1442.01071335" /><line stroke="rgb(10%,10%,16%)" stroke-width="3pt" style="stroke-linecap:round" x1="1110.9375" x2="1110.9375" y1="1474.46433238" y2="1463.88163052" /><line stroke="rgb(10%,10%,16%)" stroke-width="3pt" style="stroke-linecap:round" x1="1374.609375" x2="1374.609375" y1="1474.46433238" y2="1457.88476614" /><line stroke="rgb(10%,10%,16%)" stroke-width="3pt" style="stroke-linecap:round" x1="942.1875" x2="942.1875" y1="1489.6328717" y2="1183.79278808" /><line stroke="rgb(10%,10%,16%)" stroke-width="3pt" style="stroke-linecap:round" x1="1242.7734375" x2="1242.7734375" y1="1489.6328717" y2="1474.46433238" /><line stroke="rgb(10%,10%,16%)" stroke-width="3pt" style="stroke-linecap:round" x1="520.3125" x2="520.3125" y1="1445.18552391" y2="1423.66736347" /><line stroke="rgb(10%,10%,16%)" stroke-width="3pt" style="stroke-linecap:round" x1="1092.48046875" x2="1092.48046875" y1="1494.92422263" y2="1489.6328717" /><line stroke="rgb(10%,10%,16%)" stroke-width="3pt" style="stroke-linecap:round" x1="689.0625" x2="689.0625" y1="1516.08962634" y2="1344.29709956" /><line stroke="rgb(10%,10%,16%)" stroke-width="3pt" style="stroke-linecap:round" x1="457.03125" x2="457.03125" y1="1494.21870917" y2="1445.18552391" /><line stroke="rgb(10%,10%,16%)" stroke-width="3pt" style="stroke-linecap:round" x1="954.052734375" x2="954.052734375" y1="1516.08962634" y2="1494.92422263" /><line stroke="rgb(10%,10%,16%)" stroke-width="3pt" style="stroke-linecap:round" x1="383.203125" x2="383.203125" y1="1526.67232819" y2="1494.21870917" /><line stroke="rgb(10%,10%,16%)" stroke-width="3pt" style="stroke-linecap:round" x1="821.557617188" x2="821.557617188" y1="1526.67232819" y2="1516.08962634" /><line stroke="rgb(10%,10%,16%)" stroke-width="3pt" style="stroke-linecap:round" x1="602.380371094" x2="602.380371094" y1="1575.0" y2="1526.67232819" /><line stroke="rgb(10%,10%,16%)" stroke-width="3pt" style="stroke-linecap:round" x1="413.690185547" x2="413.690185547" y1="1575.0" y2="1575.0" /><line stroke="rgb(10%,10%,16%)" stroke-width="3pt" style="stroke-linecap:round" x1="1490.625" x2="1575.0" y1="1281.50640188" y2="1281.50640188" /><line stroke="rgb(10%,10%,16%)" stroke-width="3pt" style="stroke-linecap:round" x1="1237.5" x2="1321.875" y1="1240.23386465" y2="1240.23386465" /><line stroke="rgb(10%,10%,16%)" stroke-width="3pt" style="stroke-linecap:round" x1="1406.25" x2="1532.8125" y1="1442.01071335" y2="1442.01071335" /><line stroke="rgb(10%,10%,16%)" stroke-width="3pt" style="stroke-linecap:round" x1="1068.75" x2="1153.125" y1="1463.88163052" y2="1463.88163052" /><line stroke="rgb(10%,10%,16%)" stroke-width="3pt" style="stroke-linecap:round" x1="1279.6875" x2="1469.53125" y1="1457.88476614" y2="1457.88476614" /><line stroke="rgb(10%,10%,16%)" stroke-width="3pt" style="stroke-linecap:round" x1="900.0" x2="984.375" y1="1183.79278808" y2="1183.79278808" /><line stroke="rgb(10%,10%,16%)" stroke-width="3pt" style="stroke-linecap:round" x1="1110.9375" x2="1374.609375" y1="1474.46433238" y2="1474.46433238" /><line stroke="rgb(10%,10%,16%)" stroke-width="3pt" style="stroke-linecap:round" x1="478.125" x2="562.5" y1="1423.66736347" y2="1423.66736347" /><line stroke="rgb(10%,10%,16%)" stroke-width="3pt" style="stroke-linecap:round" x1="942.1875" x2="1242.7734375" y1="1489.6328717" y2="1489.6328717" /><line stroke="rgb(10%,10%,16%)" stroke-width="3pt" style="stroke-linecap:round" x1="646.875" x2="731.25" y1="1344.29709956" y2="1344.29709956" /><line stroke="rgb(10%,10%,16%)" stroke-width="3pt" style="stroke-linecap:round" x1="393.75" x2="520.3125" y1="1445.18552391" y2="1445.18552391" /><line stroke="rgb(10%,10%,16%)" stroke-width="3pt" style="stroke-linecap:round" x1="815.625" x2="1092.48046875" y1="1494.92422263" y2="1494.92422263" /><line stroke="rgb(10%,10%,16%)" stroke-width="3pt" style="stroke-linecap:round" x1="309.375" x2="457.03125" y1="1494.21870917" y2="1494.21870917" /><line stroke="rgb(10%,10%,16%)" stroke-width="3pt" style="stroke-linecap:round" x1="689.0625" x2="954.052734375" y1="1516.08962634" y2="1516.08962634" /><line stroke="rgb(10%,10%,16%)" stroke-width="3pt" style="stroke-linecap:round" x1="383.203125" x2="821.557617188" y1="1526.67232819" y2="1526.67232819" /><line stroke="rgb(10%,10%,16%)" stroke-width="3pt" style="stroke-linecap:round" x1="225.0" x2="602.380371094" y1="1575.0" y2="1575.0" /></g><g id="HGT_key_group" transform="translate(1386.0,1102.5)" /><g id="scale_bar" transform="translate(236.25,1543.5)"><line stroke="black" stroke-width="4pt" style="stroke-linecap:butt" x1="0" x2="133.58441113" y1="0" y2="0" /><text fill="black" font-family="sans-serif" font-size="20pt" text-anchor="middle" x="66.7922055651" y="54.0"><tspan baseline-shift="-30%">25 substitutions</tspan></text></g></svg>